  0
SECTION
  2
HEADER
  9
$ACADVER
  1
AC1024
  9
$ACADMAINTVER
 70
6
  9
$DWGCODEPAGE
  3
ANSI_1252
  9
$LASTSAVEDBY
  1
ezdxf
  9
$INSBASE
 10
0.0
 20
0.0
 30
0.0
  9
$EXTMIN
 10
-100
 20
-100
 30
-100
  9
$EXTMAX
 10
100
 20
100
 30
100
  9
$LIMMIN
 10
0.0
 20
0.0
  9
$LIMMAX
 10
420.0
 20
297.0
  9
$ORTHOMODE
 70
0
  9
$REGENMODE
 70
1
  9
$FILLMODE
 70
1
  9
$QTEXTMODE
 70
0
  9
$MIRRTEXT
 70
1
  9
$LTSCALE
 40
1.0
  9
$ATTMODE
 70
1
  9
$TEXTSIZE
 40
2.5
  9
$TRACEWID
 40
1.0
  9
$TEXTSTYLE
  7
Standard
  9
$CLAYER
  8
0
  9
$CELTYPE
  6
ByLayer
  9
$CECOLOR
 62
256
  9
$CELTSCALE
 40
1.0
  9
$DISPSILH
 70
0
  9
$DIMSCALE
 40
1.0
  9
$DIMASZ
 40
2.5
  9
$DIMEXO
 40
0.625
  9
$DIMDLI
 40
3.75
  9
$DIMRND
 40
0.0
  9
$DIMDLE
 40
0.0
  9
$DIMEXE
 40
1.25
  9
$DIMTP
 40
0.0
  9
$DIMTM
 40
0.0
  9
$DIMTXT
 40
2.5
  9
$DIMCEN
 40
2.5
  9
$DIMTSZ
 40
0.0
  9
$DIMTOL
 70
0
  9
$DIMLIM
 70
0
  9
$DIMTIH
 70
0
  9
$DIMTOH
 70
0
  9
$DIMSE1
 70
0
  9
$DIMSE2
 70
0
  9
$DIMTAD
 70
1
  9
$DIMZIN
 70
8
  9
$DIMBLK
  1

  9
$DIMASO
 70
1
  9
$DIMSHO
 70
1
  9
$DIMPOST
  1

  9
$DIMAPOST
  1

  9
$DIMALT
 70
0
  9
$DIMALTD
 70
3
  9
$DIMALTF
 40
0.03937007874
  9
$DIMLFAC
 40
1.0
  9
$DIMTOFL
 70
1
  9
$DIMTVP
 40
0.0
  9
$DIMTIX
 70
0
  9
$DIMSOXD
 70
0
  9
$DIMSAH
 70
0
  9
$DIMBLK1
  1

  9
$DIMBLK2
  1

  9
$DIMSTYLE
  2
ISO-25
  9
$DIMCLRD
 70
0
  9
$DIMCLRE
 70
0
  9
$DIMCLRT
 70
0
  9
$DIMTFAC
 40
1.0
  9
$DIMGAP
 40
0.625
  9
$DIMJUST
 70
0
  9
$DIMSD1
 70
0
  9
$DIMSD2
 70
0
  9
$DIMTOLJ
 70
0
  9
$DIMTZIN
 70
8
  9
$DIMALTZ
 70
0
  9
$DIMALTTZ
 70
0
  9
$DIMUPT
 70
0
  9
$DIMDEC
 70
2
  9
$DIMTDEC
 70
2
  9
$DIMALTU
 70
2
  9
$DIMALTTD
 70
3
  9
$DIMTXSTY
  7
Standard
  9
$DIMAUNIT
 70
0
  9
$DIMADEC
 70
0
  9
$DIMALTRND
 40
0.0
  9
$DIMAZIN
 70
0
  9
$DIMDSEP
 70
44
  9
$DIMATFIT
 70
3
  9
$DIMFRAC
 70
0
  9
$DIMLDRBLK
  1

  9
$DIMLUNIT
 70
2
  9
$DIMLWD
 70
-2
  9
$DIMLWE
 70
-2
  9
$DIMTMOVE
 70
0
  9
$DIMFXL
 40
1.0
  9
$DIMFXLON
 70
0
  9
$DIMJOGANG
 40
0.785398163397
  9
$DIMTFILL
 70
0
  9
$DIMTFILLCLR
 70
0
  9
$DIMARCSYM
 70
0
  9
$DIMLTYPE
  6

  9
$DIMLTEX1
  6

  9
$DIMLTEX2
  6

  9
$DIMTXTDIRECTION
 70
0
  9
$LUNITS
 70
2
  9
$LUPREC
 70
4
  9
$SKETCHINC
 40
1.0
  9
$FILLETRAD
 40
10.0
  9
$AUNITS
 70
0
  9
$AUPREC
 70
2
  9
$MENU
  1
.
  9
$ELEVATION
 40
0.0
  9
$PELEVATION
 40
0.0
  9
$THICKNESS
 40
0.0
  9
$LIMCHECK
 70
0
  9
$CHAMFERA
 40
0.0
  9
$CHAMFERB
 40
0.0
  9
$CHAMFERC
 40
0.0
  9
$CHAMFERD
 40
0.0
  9
$SKPOLY
 70
0
  9
$TDCREATE
 40
2459189.555798611
  9
$TDUCREATE
 40
2458532.153996898
  9
$TDUPDATE
 40
2459189.555798611
  9
$TDUUPDATE
 40
2458532.1544311
  9
$TDINDWG
 40
0.0
  9
$TDUSRTIMER
 40
0.0
  9
$USRTIMER
 70
1
  9
$ANGBASE
 50
0.0
  9
$ANGDIR
 70
0
  9
$PDMODE
 70
0
  9
$PDSIZE
 40
0.0
  9
$PLINEWID
 40
0.0
  9
$SPLFRAME
 70
0
  9
$SPLINETYPE
 70
6
  9
$SPLINESEGS
 70
8
  9
$HANDSEED
  5
1D9
  9
$SURFTAB1
 70
6
  9
$SURFTAB2
 70
6
  9
$SURFTYPE
 70
6
  9
$SURFU
 70
6
  9
$SURFV
 70
6
  9
$UCSBASE
  2

  9
$UCSNAME
  2

  9
$UCSORG
 10
0.0
 20
0.0
 30
0.0
  9
$UCSXDIR
 10
1.0
 20
0.0
 30
0.0
  9
$UCSYDIR
 10
0.0
 20
1.0
 30
0.0
  9
$UCSORTHOREF
  2

  9
$UCSORTHOVIEW
 70
0
  9
$UCSORGTOP
 10
0.0
 20
0.0
 30
0.0
  9
$UCSORGBOTTOM
 10
0.0
 20
0.0
 30
0.0
  9
$UCSORGLEFT
 10
0.0
 20
0.0
 30
0.0
  9
$UCSORGRIGHT
 10
0.0
 20
0.0
 30
0.0
  9
$UCSORGFRONT
 10
0.0
 20
0.0
 30
0.0
  9
$UCSORGBACK
 10
0.0
 20
0.0
 30
0.0
  9
$PUCSBASE
  2

  9
$PUCSNAME
  2

  9
$PUCSORG
 10
0.0
 20
0.0
 30
0.0
  9
$PUCSXDIR
 10
1.0
 20
0.0
 30
0.0
  9
$PUCSYDIR
 10
0.0
 20
1.0
 30
0.0
  9
$PUCSORTHOREF
  2

  9
$PUCSORTHOVIEW
 70
0
  9
$PUCSORGTOP
 10
0.0
 20
0.0
 30
0.0
  9
$PUCSORGBOTTOM
 10
0.0
 20
0.0
 30
0.0
  9
$PUCSORGLEFT
 10
0.0
 20
0.0
 30
0.0
  9
$PUCSORGRIGHT
 10
0.0
 20
0.0
 30
0.0
  9
$PUCSORGFRONT
 10
0.0
 20
0.0
 30
0.0
  9
$PUCSORGBACK
 10
0.0
 20
0.0
 30
0.0
  9
$USERI1
 70
0
  9
$USERI2
 70
0
  9
$USERI3
 70
0
  9
$USERI4
 70
0
  9
$USERI5
 70
0
  9
$USERR1
 40
0.0
  9
$USERR2
 40
0.0
  9
$USERR3
 40
0.0
  9
$USERR4
 40
0.0
  9
$USERR5
 40
0.0
  9
$WORLDVIEW
 70
1
  9
$SHADEDGE
 70
3
  9
$SHADEDIF
 70
70
  9
$TILEMODE
 70
1
  9
$MAXACTVP
 70
64
  9
$PINSBASE
 10
0.0
 20
0.0
 30
0.0
  9
$PLIMCHECK
 70
0
  9
$PEXTMIN
 10
1e+20
 20
1e+20
 30
1e+20
  9
$PEXTMAX
 10
-1e+20
 20
-1e+20
 30
-1e+20
  9
$PLIMMIN
 10
0.0
 20
0.0
  9
$PLIMMAX
 10
420.0
 20
297.0
  9
$UNITMODE
 70
0
  9
$VISRETAIN
 70
1
  9
$PLINEGEN
 70
0
  9
$PSLTSCALE
 70
1
  9
$TREEDEPTH
 70
3020
  9
$CMLSTYLE
  2
Standard
  9
$CMLJUST
 70
0
  9
$CMLSCALE
 40
20.0
  9
$PROXYGRAPHICS
 70
1
  9
$MEASUREMENT
 70
1
  9
$CELWEIGHT
370
-1
  9
$ENDCAPS
280
0
  9
$JOINSTYLE
280
0
  9
$LWDISPLAY
290
0
  9
$INSUNITS
 70
6
  9
$HYPERLINKBASE
  1

  9
$STYLESHEET
  1

  9
$XEDIT
290
1
  9
$CEPSNTYPE
380
0
  9
$PSTYLEMODE
290
1
  9
$FINGERPRINTGUID
  2
86E258BA-36CE-11EB-8A9D-98AF65C188EB
  9
$VERSIONGUID
  2
86E64CF8-36CE-11EB-A226-98AF65C188EB
  9
$EXTNAMES
290
1
  9
$PSVPSCALE
 40
0.0
  9
$OLESTARTUP
290
0
  9
$SORTENTS
280
127
  9
$INDEXCTL
280
0
  9
$HIDETEXT
280
1
  9
$XCLIPFRAME
280
2
  9
$HALOGAP
280
0
  9
$OBSCOLOR
 70
257
  9
$OBSLTYPE
280
0
  9
$INTERSECTIONDISPLAY
280
0
  9
$INTERSECTIONCOLOR
 70
257
  9
$DIMASSOC
280
2
  9
$PROJECTNAME
  1

  9
$CAMERADISPLAY
290
0
  9
$LENSLENGTH
 40
50.0
  9
$CAMERAHEIGHT
 40
0.0
  9
$STEPSPERSEC
 40
24.0
  9
$STEPSIZE
 40
100.0
  9
$3DDWFPREC
 40
2.0
  9
$PSOLWIDTH
 40
0.005
  9
$PSOLHEIGHT
 40
0.08
  9
$LOFTANG1
 40
1.570796326795
  9
$LOFTANG2
 40
1.570796326795
  9
$LOFTMAG1
 40
0.0
  9
$LOFTMAG2
 40
0.0
  9
$LOFTPARAM
 70
7
  9
$LOFTNORMALS
280
1
  9
$LATITUDE
 40
37.795
  9
$LONGITUDE
 40
-122.394
  9
$NORTHDIRECTION
 40
0.0
  9
$TIMEZONE
 70
-8000
  9
$LIGHTGLYPHDISPLAY
280
1
  9
$TILEMODELIGHTSYNCH
280
1
  9
$CMATERIAL
347
20
  9
$SOLIDHIST
280
0
  9
$SHOWHIST
280
1
  9
$DWFFRAME
280
2
  9
$DGNFRAME
280
2
  9
$REALWORLDSCALE
290
1
  9
$INTERFERECOLOR
 62
256
  9
$CSHADOW
280
0
  9
$SHADOWPLANELOCATION
 40
0.0
  0
ENDSEC
  0
SECTION
  2
CLASSES
  0
CLASS
  1
ACDBDICTIONARYWDFLT
  2
AcDbDictionaryWithDefault
  3
ObjectDBX Classes
 90
0
 91
0
280
0
281
0
  0
CLASS
  1
SUN
  2
AcDbSun
  3
SCENEOE
 90
1153
 91
0
280
0
281
0
  0
CLASS
  1
VISUALSTYLE
  2
AcDbVisualStyle
  3
ObjectDBX Classes
 90
4095
 91
0
280
0
281
0
  0
CLASS
  1
MATERIAL
  2
AcDbMaterial
  3
ObjectDBX Classes
 90
1153
 91
0
280
0
281
0
  0
CLASS
  1
SCALE
  2
AcDbScale
  3
ObjectDBX Classes
 90
1153
 91
0
280
0
281
0
  0
CLASS
  1
TABLESTYLE
  2
AcDbTableStyle
  3
ObjectDBX Classes
 90
4095
 91
0
280
0
281
0
  0
CLASS
  1
MLEADERSTYLE
  2
AcDbMLeaderStyle
  3
ACDB_MLEADERSTYLE_CLASS
 90
4095
 91
0
280
0
281
0
  0
CLASS
  1
DICTIONARYVAR
  2
AcDbDictionaryVar
  3
ObjectDBX Classes
 90
0
 91
0
280
0
281
0
  0
CLASS
  1
CELLSTYLEMAP
  2
AcDbCellStyleMap
  3
ObjectDBX Classes
 90
1152
 91
0
280
0
281
0
  0
CLASS
  1
MENTALRAYRENDERSETTINGS
  2
AcDbMentalRayRenderSettings
  3
SCENEOE
 90
1024
 91
0
280
0
281
0
  0
CLASS
  1
ACDBDETAILVIEWSTYLE
  2
AcDbDetailViewStyle
  3
ObjectDBX Classes
 90
1025
 91
0
280
0
281
0
  0
CLASS
  1
ACDBSECTIONVIEWSTYLE
  2
AcDbSectionViewStyle
  3
ObjectDBX Classes
 90
1025
 91
0
280
0
281
0
  0
CLASS
  1
RASTERVARIABLES
  2
AcDbRasterVariables
  3
ISM
 90
0
 91
0
280
0
281
0
  0
CLASS
  1
ACDBPLACEHOLDER
  2
AcDbPlaceHolder
  3
ObjectDBX Classes
 90
0
 91
0
280
0
281
0
  0
CLASS
  1
LAYOUT
  2
AcDbLayout
  3
ObjectDBX Classes
 90
0
 91
0
280
0
281
0
  0
ENDSEC
  0
SECTION
  2
TABLES
  0
TABLE
  2
VPORT
  5
8
330
0
100
AcDbSymbolTable
 70
1
  0
VPORT
  5
23
330
8
100
AcDbSymbolTableRecord
100
AcDbViewportTableRecord
  2
*Active
 70
0
 10
0.0
 20
0.0
 11
1.0
 21
1.0
 12
70.0
 22
50.0
 13
0.0
 23
0.0
 14
0.5
 24
0.5
 15
0.5
 25
0.5
 16
0.0
 26
0.0
 36
1.0
 17
0.0
 27
0.0
 37
0.0
 40
1.0
 41
1.34
 42
50.0
 43
0.0
 44
0.0
 50
0.0
 51
0.0
 71
0
 72
1000
 73
1
 74
3
 75
0
 76
0
 77
0
 78
0
281
0
 65
0
146
0.0
  0
ENDTAB
  0
TABLE
  2
LTYPE
  5
2
330
0
100
AcDbSymbolTable
 70
3
  0
LTYPE
  5
24
330
2
100
AcDbSymbolTableRecord
100
AcDbLinetypeTableRecord
  2
ByBlock
 70
0
  3

 72
65
 73
0
 40
0.0
  0
LTYPE
  5
25
330
2
100
AcDbSymbolTableRecord
100
AcDbLinetypeTableRecord
  2
ByLayer
 70
0
  3

 72
65
 73
0
 40
0.0
  0
LTYPE
  5
26
330
2
100
AcDbSymbolTableRecord
100
AcDbLinetypeTableRecord
  2
Continuous
 70
0
  3

 72
65
 73
0
 40
0.0
  0
ENDTAB
  0
TABLE
  2
LAYER
  5
1
330
0
100
AcDbSymbolTable
 70
2
  0
LAYER
  5
27
330
1
100
AcDbSymbolTableRecord
100
AcDbLayerTableRecord
  2
0
 70
0
 62
7
  6
Continuous
370
-3
390
13
347
21
  0
LAYER
  5
28
330
1
100
AcDbSymbolTableRecord
100
AcDbLayerTableRecord
  2
Defpoints
 70
0
 62
7
  6
Continuous
290
0
370
-3
390
13
347
21
  0
ENDTAB
  0
TABLE
  2
STYLE
  5
5
330
0
100
AcDbSymbolTable
 70
1
  0
STYLE
  5
29
330
5
100
AcDbSymbolTableRecord
100
AcDbTextStyleTableRecord
  2
Standard
 70
0
 40
0.0
 41
1.0
 50
0.0
 71
0
 42
2.5
  3
txt
  4

  0
ENDTAB
  0
TABLE
  2
VIEW
  5
7
330
0
100
AcDbSymbolTable
 70
0
  0
ENDTAB
  0
TABLE
  2
UCS
  5
6
330
0
100
AcDbSymbolTable
 70
0
  0
ENDTAB
  0
TABLE
  2
APPID
  5
3
330
0
100
AcDbSymbolTable
 70
2
  0
APPID
  5
2A
330
3
100
AcDbSymbolTableRecord
100
AcDbRegAppTableRecord
  2
ACAD
 70
0
  0
APPID
  5
1D8
330
3
100
AcDbSymbolTableRecord
100
AcDbRegAppTableRecord
  2
HATCHBACKGROUNDCOLOR
 70
0
  0
ENDTAB
  0
TABLE
  2
DIMSTYLE
  5
4
330
0
100
AcDbSymbolTable
 70
1
100
AcDbDimStyleTable
  0
DIMSTYLE
105
2B
330
4
100
AcDbSymbolTableRecord
100
AcDbDimStyleTableRecord
  2
Standard
 70
0
 40
1.0
 41
2.5
 42
0.625
 43
3.75
 44
1.25
 45
0.0
 46
0.0
 47
0.0
 48
0.0
 49
2.5
140
2.5
141
2.5
142
0.0
143
0.03937007874
144
1.0
145
0.0
146
1.0
147
0.625
148
0.0
 69
0
 70
0
 71
0
 72
0
 73
0
 74
0
 75
0
 76
0
 77
1
 78
8
 79
0
170
0
171
3
172
1
173
0
174
0
175
0
176
0
177
0
178
0
179
0
271
0
272
2
273
2
274
3
275
0
276
0
277
2
278
44
279
0
280
0
281
0
282
0
283
0
284
8
285
0
286
0
288
0
289
3
290
0
371
-2
372
-2
  0
ENDTAB
  0
TABLE
  2
BLOCK_RECORD
  5
9
330
0
100
AcDbSymbolTable
 70
28
  0
BLOCK_RECORD
  5
17
330
9
100
AcDbSymbolTableRecord
100
AcDbBlockTableRecord
  2
*Model_Space
340
1A
 70
0
280
1
281
0
  0
BLOCK_RECORD
  5
1B
330
9
100
AcDbSymbolTableRecord
100
AcDbBlockTableRecord
  2
*Paper_Space
340
1E
 70
0
280
1
281
0
  0
BLOCK_RECORD
  5
2F
330
9
100
AcDbSymbolTableRecord
100
AcDbBlockTableRecord
  2
*D1
340
0
 70
0
280
1
281
0
  0
BLOCK_RECORD
  5
34
330
9
100
AcDbSymbolTableRecord
100
AcDbBlockTableRecord
  2
_CLOSEDFILLED
340
0
 70
0
280
1
281
0
  0
BLOCK_RECORD
  5
45
330
9
100
AcDbSymbolTableRecord
100
AcDbBlockTableRecord
  2
*D2
340
0
 70
0
280
1
281
0
  0
BLOCK_RECORD
  5
55
330
9
100
AcDbSymbolTableRecord
100
AcDbBlockTableRecord
  2
*D3
340
0
 70
0
280
1
281
0
  0
BLOCK_RECORD
  5
66
330
9
100
AcDbSymbolTableRecord
100
AcDbBlockTableRecord
  2
*D4
340
0
 70
0
280
1
281
0
  0
BLOCK_RECORD
  5
77
330
9
100
AcDbSymbolTableRecord
100
AcDbBlockTableRecord
  2
*D5
340
0
 70
0
280
1
281
0
  0
BLOCK_RECORD
  5
88
330
9
100
AcDbSymbolTableRecord
100
AcDbBlockTableRecord
  2
*D6
340
0
 70
0
280
1
281
0
  0
BLOCK_RECORD
  5
99
330
9
100
AcDbSymbolTableRecord
100
AcDbBlockTableRecord
  2
*D7
340
0
 70
0
280
1
281
0
  0
BLOCK_RECORD
  5
AA
330
9
100
AcDbSymbolTableRecord
100
AcDbBlockTableRecord
  2
*D8
340
0
 70
0
280
1
281
0
  0
BLOCK_RECORD
  5
BB
330
9
100
AcDbSymbolTableRecord
100
AcDbBlockTableRecord
  2
*D9
340
0
 70
0
280
1
281
0
  0
BLOCK_RECORD
  5
CC
330
9
100
AcDbSymbolTableRecord
100
AcDbBlockTableRecord
  2
*D10
340
0
 70
0
280
1
281
0
  0
BLOCK_RECORD
  5
DD
330
9
100
AcDbSymbolTableRecord
100
AcDbBlockTableRecord
  2
*D11
340
0
 70
0
280
1
281
0
  0
BLOCK_RECORD
  5
EE
330
9
100
AcDbSymbolTableRecord
100
AcDbBlockTableRecord
  2
*D12
340
0
 70
0
280
1
281
0
  0
BLOCK_RECORD
  5
FF
330
9
100
AcDbSymbolTableRecord
100
AcDbBlockTableRecord
  2
*D13
340
0
 70
0
280
1
281
0
  0
BLOCK_RECORD
  5
110
330
9
100
AcDbSymbolTableRecord
100
AcDbBlockTableRecord
  2
*D14
340
0
 70
0
280
1
281
0
  0
BLOCK_RECORD
  5
121
330
9
100
AcDbSymbolTableRecord
100
AcDbBlockTableRecord
  2
*D15
340
0
 70
0
280
1
281
0
  0
BLOCK_RECORD
  5
132
330
9
100
AcDbSymbolTableRecord
100
AcDbBlockTableRecord
  2
*D16
340
0
 70
0
280
1
281
0
  0
BLOCK_RECORD
  5
142
330
9
100
AcDbSymbolTableRecord
100
AcDbBlockTableRecord
  2
*D17
340
0
 70
0
280
1
281
0
  0
BLOCK_RECORD
  5
153
330
9
100
AcDbSymbolTableRecord
100
AcDbBlockTableRecord
  2
*D18
340
0
 70
0
280
1
281
0
  0
BLOCK_RECORD
  5
164
330
9
100
AcDbSymbolTableRecord
100
AcDbBlockTableRecord
  2
*D19
340
0
 70
0
280
1
281
0
  0
BLOCK_RECORD
  5
175
330
9
100
AcDbSymbolTableRecord
100
AcDbBlockTableRecord
  2
*D20
340
0
 70
0
280
1
281
0
  0
BLOCK_RECORD
  5
186
330
9
100
AcDbSymbolTableRecord
100
AcDbBlockTableRecord
  2
*D21
340
0
 70
0
280
1
281
0
  0
BLOCK_RECORD
  5
197
330
9
100
AcDbSymbolTableRecord
100
AcDbBlockTableRecord
  2
*D22
340
0
 70
0
280
1
281
0
  0
BLOCK_RECORD
  5
1A8
330
9
100
AcDbSymbolTableRecord
100
AcDbBlockTableRecord
  2
*D23
340
0
 70
0
280
1
281
0
  0
BLOCK_RECORD
  5
1B9
330
9
100
AcDbSymbolTableRecord
100
AcDbBlockTableRecord
  2
*D24
340
0
 70
0
280
1
281
0
  0
BLOCK_RECORD
  5
1CA
330
9
100
AcDbSymbolTableRecord
100
AcDbBlockTableRecord
  2
*D25
340
0
 70
0
280
1
281
0
  0
ENDTAB
  0
ENDSEC
  0
SECTION
  2
BLOCKS
  0
BLOCK
  5
18
330
17
100
AcDbEntity
  8
0
100
AcDbBlockBegin
  2
*Model_Space
 70
0
 10
0.0
 20
0.0
 30
0.0
  3
*Model_Space
  1

  0
ENDBLK
  5
19
330
17
100
AcDbEntity
  8
0
100
AcDbBlockEnd
  0
BLOCK
  5
1C
330
1B
100
AcDbEntity
  8
0
100
AcDbBlockBegin
  2
*Paper_Space
 70
0
 10
0.0
 20
0.0
 30
0.0
  3
*Paper_Space
  1

  0
ENDBLK
  5
1D
330
1B
100
AcDbEntity
  8
0
100
AcDbBlockEnd
  0
BLOCK
  5
30
330
2F
100
AcDbEntity
  8
0
100
AcDbBlockBegin
  2
*D1
 70
1
 10
0.0
 20
0.0
 30
0.0
  3
*D1
  1

  0
LINE
  5
32
330
2F
100
AcDbEntity
  8
0
370
-2
100
AcDbLine
 10
95.68648005054348
 20
95.0
 30
0.0
 11
95.68648005054348
 21
99.0
 31
0.0
  0
LINE
  5
33
330
2F
100
AcDbEntity
  8
0
370
-2
100
AcDbLine
 10
96.1566885525784
 20
95.0
 30
0.0
 11
96.1566885525784
 21
99.0
 31
0.0
  0
INSERT
  5
38
330
2F
100
AcDbEntity
  8
0
100
AcDbBlockReference
  2
_CLOSEDFILLED
 10
95.68648005054348
 20
99.0
 30
0.0
  0
INSERT
  5
3A
330
2F
100
AcDbEntity
  8
0
100
AcDbBlockReference
  2
_CLOSEDFILLED
 10
96.1566885525784
 20
99.0
 30
0.0
 50
180.0
  0
LINE
  5
3C
330
2F
100
AcDbEntity
  8
0
100
AcDbLine
 10
94.68648005054348
 20
99.0
 30
0.0
 11
93.68648005054348
 21
99.0
 31
0.0
  0
LINE
  5
3D
330
2F
100
AcDbEntity
  8
0
100
AcDbLine
 10
97.1566885525784
 20
99.0
 30
0.0
 11
98.1566885525784
 21
99.0
 31
0.0
  0
LINE
  5
3E
330
2F
100
AcDbEntity
  8
0
370
-2
100
AcDbLine
 10
95.68648005054348
 20
99.0
 30
0.0
 11
96.1566885525784
 21
99.0
 31
0.0
  0
MTEXT
  5
3F
330
2F
100
AcDbEntity
  8
0
100
AcDbMText
 10
95.92158430156094
 20
100.125
 30
0.0
 40
1.0
 71
5
  1
0,470209
  0
POINT
  5
40
330
2F
100
AcDbEntity
  8
DEFPOINTS
100
AcDbPoint
 10
95.68648005054348
 20
99.0
 30
0.0
  0
POINT
  5
41
330
2F
100
AcDbEntity
  8
DEFPOINTS
100
AcDbPoint
 10
95.68648005054348
 20
95.0
 30
0.0
  0
POINT
  5
42
330
2F
100
AcDbEntity
  8
DEFPOINTS
100
AcDbPoint
 10
96.1566885525784
 20
95.0
 30
0.0
  0
ENDBLK
  5
31
330
2F
100
AcDbEntity
  8
0
100
AcDbBlockEnd
  0
BLOCK
  5
35
330
34
100
AcDbEntity
  8
0
100
AcDbBlockBegin
  2
_CLOSEDFILLED
 70
0
 10
0.0
 20
0.0
 30
0.0
  3
_CLOSEDFILLED
  1

  0
SOLID
  5
37
330
34
100
AcDbEntity
  8
0
  6
BYBLOCK
 62
0
100
AcDbTrace
 10
-1.0
 20
0.1643989837240255
 30
0.0
 11
0.0
 21
0.0
 31
0.0
 12
-1.0
 22
-0.1643989837240255
 32
0.0
 13
-1.0
 23
-0.1643989837240255
 33
0.0
  0
ENDBLK
  5
36
330
34
100
AcDbEntity
  8
0
100
AcDbBlockEnd
  0
BLOCK
  5
46
330
45
100
AcDbEntity
  8
0
100
AcDbBlockBegin
  2
*D2
 70
1
 10
0.0
 20
0.0
 30
0.0
  3
*D2
  1

  0
LINE
  5
48
330
45
100
AcDbEntity
  8
0
370
-2
100
AcDbLine
 10
456.0
 20
95.0
 30
0.0
 11
456.0
 21
99.0
 31
0.0
  0
LINE
  5
49
330
45
100
AcDbEntity
  8
0
370
-2
100
AcDbLine
 10
464.00001688206726
 20
95.0
 30
0.0
 11
464.00001688206726
 21
99.0
 31
0.0
  0
INSERT
  5
4A
330
45
100
AcDbEntity
  8
0
100
AcDbBlockReference
  2
_CLOSEDFILLED
 10
456.0
 20
99.0
 30
0.0
 50
180.0
  0
INSERT
  5
4C
330
45
100
AcDbEntity
  8
0
100
AcDbBlockReference
  2
_CLOSEDFILLED
 10
464.00001688206726
 20
99.0
 30
0.0
  0
LINE
  5
4E
330
45
100
AcDbEntity
  8
0
370
-2
100
AcDbLine
 10
457.0
 20
99.0
 30
0.0
 11
463.00001688206726
 21
99.0
 31
0.0
  0
MTEXT
  5
4F
330
45
100
AcDbEntity
  8
0
100
AcDbMText
 10
460.00000844103363
 20
100.125
 30
0.0
 40
1.0
 71
5
  1
8,000017
  0
POINT
  5
50
330
45
100
AcDbEntity
  8
DEFPOINTS
100
AcDbPoint
 10
456.0
 20
99.0
 30
0.0
  0
POINT
  5
51
330
45
100
AcDbEntity
  8
DEFPOINTS
100
AcDbPoint
 10
456.0
 20
95.0
 30
0.0
  0
POINT
  5
52
330
45
100
AcDbEntity
  8
DEFPOINTS
100
AcDbPoint
 10
464.00001688206726
 20
95.0
 30
0.0
  0
ENDBLK
  5
47
330
45
100
AcDbEntity
  8
0
100
AcDbBlockEnd
  0
BLOCK
  5
56
330
55
100
AcDbEntity
  8
0
100
AcDbBlockBegin
  2
*D3
 70
1
 10
0.0
 20
0.0
 30
0.0
  3
*D3
  1

  0
LINE
  5
58
330
55
100
AcDbEntity
  8
0
370
-2
100
AcDbLine
 10
341.0
 20
65.0
 30
0.0
 11
341.0
 21
69.0
 31
0.0
  0
LINE
  5
59
330
55
100
AcDbEntity
  8
0
370
-2
100
AcDbLine
 10
459.0
 20
65.0
 30
0.0
 11
459.0
 21
69.0
 31
0.0
  0
INSERT
  5
5A
330
55
100
AcDbEntity
  8
0
100
AcDbBlockReference
  2
_CLOSEDFILLED
 10
341.0
 20
69.0
 30
0.0
 50
180.0
  0
INSERT
  5
5C
330
55
100
AcDbEntity
  8
0
100
AcDbBlockReference
  2
_CLOSEDFILLED
 10
459.0
 20
69.0
 30
0.0
  0
LINE
  5
5E
330
55
100
AcDbEntity
  8
0
370
-2
100
AcDbLine
 10
342.0
 20
69.0
 30
0.0
 11
398.5
 21
69.0
 31
0.0
  0
LINE
  5
5F
330
55
100
AcDbEntity
  8
0
370
-2
100
AcDbLine
 10
401.5
 20
69.0
 30
0.0
 11
458.0
 21
69.0
 31
0.0
  0
MTEXT
  5
60
330
55
100
AcDbEntity
  8
0
100
AcDbMText
 10
400.0
 20
69.0
 30
0.0
 40
1.0
 71
5
  1
118
  0
POINT
  5
61
330
55
100
AcDbEntity
  8
DEFPOINTS
100
AcDbPoint
 10
341.0
 20
69.0
 30
0.0
  0
POINT
  5
62
330
55
100
AcDbEntity
  8
DEFPOINTS
100
AcDbPoint
 10
341.0
 20
65.0
 30
0.0
  0
POINT
  5
63
330
55
100
AcDbEntity
  8
DEFPOINTS
100
AcDbPoint
 10
459.0
 20
65.0
 30
0.0
  0
ENDBLK
  5
57
330
55
100
AcDbEntity
  8
0
100
AcDbBlockEnd
  0
BLOCK
  5
67
330
66
100
AcDbEntity
  8
0
100
AcDbBlockBegin
  2
*D4
 70
1
 10
0.0
 20
0.0
 30
0.0
  3
*D4
  1

  0
LINE
  5
69
330
66
100
AcDbEntity
  8
0
370
-2
100
AcDbLine
 10
212.0
 20
57.0
 30
0.0
 11
212.0
 21
61.0
 31
0.0
  0
LINE
  5
6A
330
66
100
AcDbEntity
  8
0
370
-2
100
AcDbLine
 10
341.0
 20
57.0
 30
0.0
 11
341.0
 21
61.0
 31
0.0
  0
INSERT
  5
6B
330
66
100
AcDbEntity
  8
0
100
AcDbBlockReference
  2
_CLOSEDFILLED
 10
212.0
 20
61.0
 30
0.0
 50
180.0
  0
INSERT
  5
6D
330
66
100
AcDbEntity
  8
0
100
AcDbBlockReference
  2
_CLOSEDFILLED
 10
341.0
 20
61.0
 30
0.0
  0
LINE
  5
6F
330
66
100
AcDbEntity
  8
0
370
-2
100
AcDbLine
 10
213.0
 20
61.0
 30
0.0
 11
275.0
 21
61.0
 31
0.0
  0
LINE
  5
70
330
66
100
AcDbEntity
  8
0
370
-2
100
AcDbLine
 10
278.0
 20
61.0
 30
0.0
 11
340.0
 21
61.0
 31
0.0
  0
MTEXT
  5
71
330
66
100
AcDbEntity
  8
0
100
AcDbMText
 10
276.5
 20
61.0
 30
0.0
 40
1.0
 71
5
  1
129
  0
POINT
  5
72
330
66
100
AcDbEntity
  8
DEFPOINTS
100
AcDbPoint
 10
212.0
 20
61.0
 30
0.0
  0
POINT
  5
73
330
66
100
AcDbEntity
  8
DEFPOINTS
100
AcDbPoint
 10
212.0
 20
57.0
 30
0.0
  0
POINT
  5
74
330
66
100
AcDbEntity
  8
DEFPOINTS
100
AcDbPoint
 10
341.0
 20
57.0
 30
0.0
  0
ENDBLK
  5
68
330
66
100
AcDbEntity
  8
0
100
AcDbBlockEnd
  0
BLOCK
  5
78
330
77
100
AcDbEntity
  8
0
100
AcDbBlockBegin
  2
*D5
 70
1
 10
0.0
 20
0.0
 30
0.0
  3
*D5
  1

  0
LINE
  5
7A
330
77
100
AcDbEntity
  8
0
370
-2
100
AcDbLine
 10
78.0
 20
26.18005028837521
 30
0.0
 11
74.0
 21
26.18005028837521
 31
0.0
  0
LINE
  5
7B
330
77
100
AcDbEntity
  8
0
370
-2
100
AcDbLine
 10
78.0
 20
169.7058868408203
 30
0.0
 11
74.0
 21
169.7058868408203
 31
0.0
  0
INSERT
  5
7C
330
77
100
AcDbEntity
  8
0
100
AcDbBlockReference
  2
_CLOSEDFILLED
 10
74.0
 20
26.18005028837521
 30
0.0
 50
270.0
  0
INSERT
  5
7E
330
77
100
AcDbEntity
  8
0
100
AcDbBlockReference
  2
_CLOSEDFILLED
 10
74.0
 20
169.7058868408203
 30
0.0
 50
90.0
  0
LINE
  5
80
330
77
100
AcDbEntity
  8
0
370
-2
100
AcDbLine
 10
74.0
 20
27.18005028837521
 30
0.0
 11
74.0
 21
92.94296856459809
 31
0.0
  0
LINE
  5
81
330
77
100
AcDbEntity
  8
0
370
-2
100
AcDbLine
 10
74.0
 20
102.94296856459808
 30
0.0
 11
74.0
 21
168.7058868408203
 31
0.0
  0
MTEXT
  5
82
330
77
100
AcDbEntity
  8
0
100
AcDbMText
 10
74.0
 20
97.94296856459776
 30
0.0
 40
1.0
 71
5
  1
143,525837
 11
6.123233995736766e-17
 21
1.0
 31
0.0
  0
POINT
  5
83
330
77
100
AcDbEntity
  8
DEFPOINTS
100
AcDbPoint
 10
74.0
 20
26.18005028837521
 30
0.0
  0
POINT
  5
84
330
77
100
AcDbEntity
  8
DEFPOINTS
100
AcDbPoint
 10
78.0
 20
26.18005028837521
 30
0.0
  0
POINT
  5
85
330
77
100
AcDbEntity
  8
DEFPOINTS
100
AcDbPoint
 10
78.0
 20
169.7058868408203
 30
0.0
  0
ENDBLK
  5
79
330
77
100
AcDbEntity
  8
0
100
AcDbBlockEnd
  0
BLOCK
  5
89
330
88
100
AcDbEntity
  8
0
100
AcDbBlockBegin
  2
*D6
 70
1
 10
0.0
 20
0.0
 30
0.0
  3
*D6
  1

  0
LINE
  5
8B
330
88
100
AcDbEntity
  8
0
370
-2
100
AcDbLine
 10
384.0000305175781
 20
74.0
 30
0.0
 11
384.0000305175781
 21
78.0
 31
0.0
  0
LINE
  5
8C
330
88
100
AcDbEntity
  8
0
370
-2
100
AcDbLine
 10
456.0
 20
74.0
 30
0.0
 11
456.0
 21
78.0
 31
0.0
  0
INSERT
  5
8D
330
88
100
AcDbEntity
  8
0
100
AcDbBlockReference
  2
_CLOSEDFILLED
 10
384.0000305175781
 20
78.0
 30
0.0
 50
180.0
  0
INSERT
  5
8F
330
88
100
AcDbEntity
  8
0
100
AcDbBlockReference
  2
_CLOSEDFILLED
 10
456.0
 20
78.0
 30
0.0
  0
LINE
  5
91
330
88
100
AcDbEntity
  8
0
370
-2
100
AcDbLine
 10
385.0000305175781
 20
78.0
 30
0.0
 11
415.50001525878906
 21
78.0
 31
0.0
  0
LINE
  5
92
330
88
100
AcDbEntity
  8
0
370
-2
100
AcDbLine
 10
424.50001525878906
 20
78.0
 30
0.0
 11
455.0
 21
78.0
 31
0.0
  0
MTEXT
  5
93
330
88
100
AcDbEntity
  8
0
100
AcDbMText
 10
420.00001525878906
 20
78.0
 30
0.0
 40
1.0
 71
5
  1
71,999969
  0
POINT
  5
94
330
88
100
AcDbEntity
  8
DEFPOINTS
100
AcDbPoint
 10
384.0000305175781
 20
78.0
 30
0.0
  0
POINT
  5
95
330
88
100
AcDbEntity
  8
DEFPOINTS
100
AcDbPoint
 10
384.0000305175781
 20
74.0
 30
0.0
  0
POINT
  5
96
330
88
100
AcDbEntity
  8
DEFPOINTS
100
AcDbPoint
 10
456.0
 20
74.0
 30
0.0
  0
ENDBLK
  5
8A
330
88
100
AcDbEntity
  8
0
100
AcDbBlockEnd
  0
BLOCK
  5
9A
330
99
100
AcDbEntity
  8
0
100
AcDbBlockBegin
  2
*D7
 70
1
 10
0.0
 20
0.0
 30
0.0
  3
*D7
  1

  0
LINE
  5
9C
330
99
100
AcDbEntity
  8
0
370
-2
100
AcDbLine
 10
115.0
 20
18.95381736755371
 30
0.0
 11
111.0
 21
18.95381736755371
 31
0.0
  0
LINE
  5
9D
330
99
100
AcDbEntity
  8
0
370
-2
100
AcDbLine
 10
115.0
 20
168.27239990234375
 30
0.0
 11
111.0
 21
168.27239990234375
 31
0.0
  0
INSERT
  5
9E
330
99
100
AcDbEntity
  8
0
100
AcDbBlockReference
  2
_CLOSEDFILLED
 10
111.0
 20
18.95381736755371
 30
0.0
 50
270.0
  0
INSERT
  5
A0
330
99
100
AcDbEntity
  8
0
100
AcDbBlockReference
  2
_CLOSEDFILLED
 10
111.0
 20
168.27239990234375
 30
0.0
 50
90.0
  0
LINE
  5
A2
330
99
100
AcDbEntity
  8
0
370
-2
100
AcDbLine
 10
111.0
 20
19.95381736755371
 30
0.0
 11
111.0
 21
88.61310863494873
 31
0.0
  0
LINE
  5
A3
330
99
100
AcDbEntity
  8
0
370
-2
100
AcDbLine
 10
111.0
 20
98.61310863494873
 30
0.0
 11
111.0
 21
167.27239990234375
 31
0.0
  0
MTEXT
  5
A4
330
99
100
AcDbEntity
  8
0
100
AcDbMText
 10
111.0
 20
93.61310863494873
 30
0.0
 40
1.0
 71
5
  1
149,318583
 11
6.123233995736766e-17
 21
1.0
 31
0.0
  0
POINT
  5
A5
330
99
100
AcDbEntity
  8
DEFPOINTS
100
AcDbPoint
 10
111.0
 20
18.95381736755371
 30
0.0
  0
POINT
  5
A6
330
99
100
AcDbEntity
  8
DEFPOINTS
100
AcDbPoint
 10
115.0
 20
18.95381736755371
 30
0.0
  0
POINT
  5
A7
330
99
100
AcDbEntity
  8
DEFPOINTS
100
AcDbPoint
 10
115.0
 20
168.27239990234375
 30
0.0
  0
ENDBLK
  5
9B
330
99
100
AcDbEntity
  8
0
100
AcDbBlockEnd
  0
BLOCK
  5
AB
330
AA
100
AcDbEntity
  8
0
100
AcDbBlockBegin
  2
*D8
 70
1
 10
0.0
 20
0.0
 30
0.0
  3
*D8
  1

  0
LINE
  5
AD
330
AA
100
AcDbEntity
  8
0
370
-2
100
AcDbLine
 10
115.0
 20
143.0
 30
0.0
 11
115.0
 21
147.0
 31
0.0
  0
LINE
  5
AE
330
AA
100
AcDbEntity
  8
0
370
-2
100
AcDbLine
 10
212.0
 20
143.0
 30
0.0
 11
212.0
 21
147.0
 31
0.0
  0
INSERT
  5
AF
330
AA
100
AcDbEntity
  8
0
100
AcDbBlockReference
  2
_CLOSEDFILLED
 10
115.0
 20
147.0
 30
0.0
 50
180.0
  0
INSERT
  5
B1
330
AA
100
AcDbEntity
  8
0
100
AcDbBlockReference
  2
_CLOSEDFILLED
 10
212.0
 20
147.0
 30
0.0
  0
LINE
  5
B3
330
AA
100
AcDbEntity
  8
0
370
-2
100
AcDbLine
 10
116.0
 20
147.0
 30
0.0
 11
162.5
 21
147.0
 31
0.0
  0
LINE
  5
B4
330
AA
100
AcDbEntity
  8
0
370
-2
100
AcDbLine
 10
164.5
 20
147.0
 30
0.0
 11
211.0
 21
147.0
 31
0.0
  0
MTEXT
  5
B5
330
AA
100
AcDbEntity
  8
0
100
AcDbMText
 10
163.5
 20
147.0
 30
0.0
 40
1.0
 71
5
  1
97
  0
POINT
  5
B6
330
AA
100
AcDbEntity
  8
DEFPOINTS
100
AcDbPoint
 10
115.0
 20
147.0
 30
0.0
  0
POINT
  5
B7
330
AA
100
AcDbEntity
  8
DEFPOINTS
100
AcDbPoint
 10
115.0
 20
143.0
 30
0.0
  0
POINT
  5
B8
330
AA
100
AcDbEntity
  8
DEFPOINTS
100
AcDbPoint
 10
212.0
 20
143.0
 30
0.0
  0
ENDBLK
  5
AC
330
AA
100
AcDbEntity
  8
0
100
AcDbBlockEnd
  0
BLOCK
  5
BC
330
BB
100
AcDbEntity
  8
0
100
AcDbBlockBegin
  2
*D9
 70
1
 10
0.0
 20
0.0
 30
0.0
  3
*D9
  1

  0
LINE
  5
BE
330
BB
100
AcDbEntity
  8
0
370
-2
100
AcDbLine
 10
77.95372772216797
 20
26.0
 30
0.0
 11
77.95372772216797
 21
30.0
 31
0.0
  0
LINE
  5
BF
330
BB
100
AcDbEntity
  8
0
370
-2
100
AcDbLine
 10
113.25403594970703
 20
26.0
 30
0.0
 11
113.25403594970703
 21
30.0
 31
0.0
  0
INSERT
  5
C0
330
BB
100
AcDbEntity
  8
0
100
AcDbBlockReference
  2
_CLOSEDFILLED
 10
77.95372772216797
 20
30.0
 30
0.0
 50
180.0
  0
INSERT
  5
C2
330
BB
100
AcDbEntity
  8
0
100
AcDbBlockReference
  2
_CLOSEDFILLED
 10
113.25403594970703
 20
30.0
 30
0.0
  0
LINE
  5
C4
330
BB
100
AcDbEntity
  8
0
370
-2
100
AcDbLine
 10
78.95372772216797
 20
30.0
 30
0.0
 11
91.1038818359375
 21
30.0
 31
0.0
  0
LINE
  5
C5
330
BB
100
AcDbEntity
  8
0
370
-2
100
AcDbLine
 10
100.1038818359375
 20
30.0
 30
0.0
 11
112.25403594970703
 21
30.0
 31
0.0
  0
MTEXT
  5
C6
330
BB
100
AcDbEntity
  8
0
100
AcDbMText
 10
95.6038818359375
 20
30.0
 30
0.0
 40
1.0
 71
5
  1
35,300308
  0
POINT
  5
C7
330
BB
100
AcDbEntity
  8
DEFPOINTS
100
AcDbPoint
 10
77.95372772216797
 20
30.0
 30
0.0
  0
POINT
  5
C8
330
BB
100
AcDbEntity
  8
DEFPOINTS
100
AcDbPoint
 10
77.95372772216797
 20
26.0
 30
0.0
  0
POINT
  5
C9
330
BB
100
AcDbEntity
  8
DEFPOINTS
100
AcDbPoint
 10
113.25403594970703
 20
26.0
 30
0.0
  0
ENDBLK
  5
BD
330
BB
100
AcDbEntity
  8
0
100
AcDbBlockEnd
  0
BLOCK
  5
CD
330
CC
100
AcDbEntity
  8
0
100
AcDbBlockBegin
  2
*D10
 70
1
 10
0.0
 20
0.0
 30
0.0
  3
*D10
  1

  0
LINE
  5
CF
330
CC
100
AcDbEntity
  8
0
370
-2
100
AcDbLine
 10
341.0
 20
121.0
 30
0.0
 11
341.0
 21
125.0
 31
0.0
  0
LINE
  5
D0
330
CC
100
AcDbEntity
  8
0
370
-2
100
AcDbLine
 10
456.0
 20
121.0
 30
0.0
 11
456.0
 21
125.0
 31
0.0
  0
INSERT
  5
D1
330
CC
100
AcDbEntity
  8
0
100
AcDbBlockReference
  2
_CLOSEDFILLED
 10
341.0
 20
125.0
 30
0.0
 50
180.0
  0
INSERT
  5
D3
330
CC
100
AcDbEntity
  8
0
100
AcDbBlockReference
  2
_CLOSEDFILLED
 10
456.0
 20
125.0
 30
0.0
  0
LINE
  5
D5
330
CC
100
AcDbEntity
  8
0
370
-2
100
AcDbLine
 10
342.0
 20
125.0
 30
0.0
 11
397.0
 21
125.0
 31
0.0
  0
LINE
  5
D6
330
CC
100
AcDbEntity
  8
0
370
-2
100
AcDbLine
 10
400.0
 20
125.0
 30
0.0
 11
455.0
 21
125.0
 31
0.0
  0
MTEXT
  5
D7
330
CC
100
AcDbEntity
  8
0
100
AcDbMText
 10
398.5
 20
125.0
 30
0.0
 40
1.0
 71
5
  1
115
  0
POINT
  5
D8
330
CC
100
AcDbEntity
  8
DEFPOINTS
100
AcDbPoint
 10
341.0
 20
125.0
 30
0.0
  0
POINT
  5
D9
330
CC
100
AcDbEntity
  8
DEFPOINTS
100
AcDbPoint
 10
341.0
 20
121.0
 30
0.0
  0
POINT
  5
DA
330
CC
100
AcDbEntity
  8
DEFPOINTS
100
AcDbPoint
 10
456.0
 20
121.0
 30
0.0
  0
ENDBLK
  5
CE
330
CC
100
AcDbEntity
  8
0
100
AcDbBlockEnd
  0
BLOCK
  5
DE
330
DD
100
AcDbEntity
  8
0
100
AcDbBlockBegin
  2
*D11
 70
1
 10
0.0
 20
0.0
 30
0.0
  3
*D11
  1

  0
LINE
  5
E0
330
DD
100
AcDbEntity
  8
0
370
-2
100
AcDbLine
 10
212.0
 20
39.0
 30
0.0
 11
208.0
 21
39.0
 31
0.0
  0
LINE
  5
E1
330
DD
100
AcDbEntity
  8
0
370
-2
100
AcDbLine
 10
212.0
 20
143.0
 30
0.0
 11
208.0
 21
143.0
 31
0.0
  0
INSERT
  5
E2
330
DD
100
AcDbEntity
  8
0
100
AcDbBlockReference
  2
_CLOSEDFILLED
 10
208.0
 20
39.0
 30
0.0
 50
270.0
  0
INSERT
  5
E4
330
DD
100
AcDbEntity
  8
0
100
AcDbBlockReference
  2
_CLOSEDFILLED
 10
208.0
 20
143.0
 30
0.0
 50
90.0
  0
LINE
  5
E6
330
DD
100
AcDbEntity
  8
0
370
-2
100
AcDbLine
 10
208.0
 20
40.0
 30
0.0
 11
208.0
 21
89.5
 31
0.0
  0
LINE
  5
E7
330
DD
100
AcDbEntity
  8
0
370
-2
100
AcDbLine
 10
208.0
 20
92.5
 30
0.0
 11
208.0
 21
142.0
 31
0.0
  0
MTEXT
  5
E8
330
DD
100
AcDbEntity
  8
0
100
AcDbMText
 10
208.0
 20
91.0
 30
0.0
 40
1.0
 71
5
  1
104
 11
6.123233995736766e-17
 21
1.0
 31
0.0
  0
POINT
  5
E9
330
DD
100
AcDbEntity
  8
DEFPOINTS
100
AcDbPoint
 10
208.0
 20
39.0
 30
0.0
  0
POINT
  5
EA
330
DD
100
AcDbEntity
  8
DEFPOINTS
100
AcDbPoint
 10
212.0
 20
39.0
 30
0.0
  0
POINT
  5
EB
330
DD
100
AcDbEntity
  8
DEFPOINTS
100
AcDbPoint
 10
212.0
 20
143.0
 30
0.0
  0
ENDBLK
  5
DF
330
DD
100
AcDbEntity
  8
0
100
AcDbBlockEnd
  0
BLOCK
  5
EF
330
EE
100
AcDbEntity
  8
0
100
AcDbBlockBegin
  2
*D12
 70
1
 10
0.0
 20
0.0
 30
0.0
  3
*D12
  1

  0
LINE
  5
F1
330
EE
100
AcDbEntity
  8
0
370
-2
100
AcDbLine
 10
78.0
 20
159.99998474121426
 30
0.0
 11
77.99999825351077
 21
163.9999847412139
 31
0.0
  0
LINE
  5
F2
330
EE
100
AcDbEntity
  8
0
370
-2
100
AcDbLine
 10
112.94733428955078
 20
160.0
 30
0.0
 11
112.94733254306155
 21
163.99999999999963
 31
0.0
  0
INSERT
  5
F3
330
EE
100
AcDbEntity
  8
0
100
AcDbBlockReference
  2
_CLOSEDFILLED
 10
77.99999825351077
 20
163.9999847412139
 30
0.0
 50
180.00002501661547
  0
INSERT
  5
F5
330
EE
100
AcDbEntity
  8
0
100
AcDbBlockReference
  2
_CLOSEDFILLED
 10
112.94733254306155
 20
163.99999999999963
 30
0.0
 50
2.5016615458851552e-05
  0
LINE
  5
F7
330
EE
100
AcDbEntity
  8
0
370
-2
100
AcDbLine
 10
78.99999825351067
 20
163.9999851778362
 30
0.0
 11
90.9736653982866
 21
163.9999904058064
 31
0.0
  0
LINE
  5
F8
330
EE
100
AcDbEntity
  8
0
370
-2
100
AcDbLine
 10
99.97366539828474
 20
163.99999433540717
 30
0.0
 11
111.94733254306165
 21
163.99999956337732
 31
0.0
  0
MTEXT
  5
F9
330
EE
100
AcDbEntity
  8
0
100
AcDbMText
 10
95.47366539828616
 20
163.99999237060678
 30
0.0
 40
1.0
 71
5
  1
34,947334
 11
0.9999999999999046
 21
4.3662230746225775e-07
 31
0.0
  0
POINT
  5
FA
330
EE
100
AcDbEntity
  8
DEFPOINTS
100
AcDbPoint
 10
77.99999825351077
 20
163.9999847412139
 30
0.0
  0
POINT
  5
FB
330
EE
100
AcDbEntity
  8
DEFPOINTS
100
AcDbPoint
 10
78.0
 20
159.99998474121426
 30
0.0
  0
POINT
  5
FC
330
EE
100
AcDbEntity
  8
DEFPOINTS
100
AcDbPoint
 10
112.94733428955078
 20
160.0
 30
0.0
  0
ENDBLK
  5
F0
330
EE
100
AcDbEntity
  8
0
100
AcDbBlockEnd
  0
BLOCK
  5
100
330
FF
100
AcDbEntity
  8
0
100
AcDbBlockBegin
  2
*D13
 70
1
 10
0.0
 20
0.0
 30
0.0
  3
*D13
  1

  0
LINE
  5
102
330
FF
100
AcDbEntity
  8
0
370
-2
100
AcDbLine
 10
464.0
 20
121.0
 30
0.0
 11
467.99999999999915
 21
121.00000262260437
 31
0.0
  0
LINE
  5
103
330
FF
100
AcDbEntity
  8
0
370
-2
100
AcDbLine
 10
464.0000305175781
 20
74.00000762939453
 30
0.0
 11
468.0000305175773
 21
74.0000102519989
 31
0.0
  0
INSERT
  5
104
330
FF
100
AcDbEntity
  8
0
100
AcDbBlockReference
  2
_CLOSEDFILLED
 10
467.99999999999915
 20
121.00000262260437
 30
0.0
 50
90.00003720273854
  0
INSERT
  5
106
330
FF
100
AcDbEntity
  8
0
100
AcDbBlockReference
  2
_CLOSEDFILLED
 10
468.0000305175773
 20
74.0000102519989
 30
0.0
 50
-89.99996279726146
  0
LINE
  5
108
330
FF
100
AcDbEntity
  8
0
370
-2
100
AcDbLine
 10
468.0000006493094
 20
120.00000262260458
 30
0.0
 11
468.000012336892
 21
102.00000643730095
 31
0.0
  0
LINE
  5
109
330
FF
100
AcDbEntity
  8
0
370
-2
100
AcDbLine
 10
468.0000181806845
 20
93.00000643730264
 30
0.0
 11
468.000029868267
 21
75.00001025199869
 31
0.0
  0
MTEXT
  5
10A
330
FF
100
AcDbEntity
  8
0
100
AcDbMText
 10
468.0000152587882
 20
97.50000643730164
 30
0.0
 40
1.0
 71
5
  1
46,999992
 11
6.493102782724326e-07
 21
-0.9999999999997892
 31
0.0
  0
POINT
  5
10B
330
FF
100
AcDbEntity
  8
DEFPOINTS
100
AcDbPoint
 10
467.99999999999915
 20
121.00000262260437
 30
0.0
  0
POINT
  5
10C
330
FF
100
AcDbEntity
  8
DEFPOINTS
100
AcDbPoint
 10
464.0
 20
121.0
 30
0.0
  0
POINT
  5
10D
330
FF
100
AcDbEntity
  8
DEFPOINTS
100
AcDbPoint
 10
464.0000305175781
 20
74.00000762939453
 30
0.0
  0
ENDBLK
  5
101
330
FF
100
AcDbEntity
  8
0
100
AcDbBlockEnd
  0
BLOCK
  5
111
330
110
100
AcDbEntity
  8
0
100
AcDbBlockBegin
  2
*D14
 70
1
 10
0.0
 20
0.0
 30
0.0
  3
*D14
  1

  0
LINE
  5
113
330
110
100
AcDbEntity
  8
0
370
-2
100
AcDbLine
 10
115.0
 20
39.0
 30
0.0
 11
115.0
 21
43.0
 31
0.0
  0
LINE
  5
114
330
110
100
AcDbEntity
  8
0
370
-2
100
AcDbLine
 10
212.0
 20
39.0
 30
0.0
 11
212.0
 21
43.0
 31
0.0
  0
INSERT
  5
115
330
110
100
AcDbEntity
  8
0
100
AcDbBlockReference
  2
_CLOSEDFILLED
 10
115.0
 20
43.0
 30
0.0
 50
180.0
  0
INSERT
  5
117
330
110
100
AcDbEntity
  8
0
100
AcDbBlockReference
  2
_CLOSEDFILLED
 10
212.0
 20
43.0
 30
0.0
  0
LINE
  5
119
330
110
100
AcDbEntity
  8
0
370
-2
100
AcDbLine
 10
116.0
 20
43.0
 30
0.0
 11
162.5
 21
43.0
 31
0.0
  0
LINE
  5
11A
330
110
100
AcDbEntity
  8
0
370
-2
100
AcDbLine
 10
164.5
 20
43.0
 30
0.0
 11
211.0
 21
43.0
 31
0.0
  0
MTEXT
  5
11B
330
110
100
AcDbEntity
  8
0
100
AcDbMText
 10
163.5
 20
43.0
 30
0.0
 40
1.0
 71
5
  1
97
  0
POINT
  5
11C
330
110
100
AcDbEntity
  8
DEFPOINTS
100
AcDbPoint
 10
115.0
 20
43.0
 30
0.0
  0
POINT
  5
11D
330
110
100
AcDbEntity
  8
DEFPOINTS
100
AcDbPoint
 10
115.0
 20
39.0
 30
0.0
  0
POINT
  5
11E
330
110
100
AcDbEntity
  8
DEFPOINTS
100
AcDbPoint
 10
212.0
 20
39.0
 30
0.0
  0
ENDBLK
  5
112
330
110
100
AcDbEntity
  8
0
100
AcDbBlockEnd
  0
BLOCK
  5
122
330
121
100
AcDbEntity
  8
0
100
AcDbBlockBegin
  2
*D15
 70
1
 10
0.0
 20
0.0
 30
0.0
  3
*D15
  1

  0
LINE
  5
124
330
121
100
AcDbEntity
  8
0
370
-2
100
AcDbLine
 10
77.95372772216797
 20
26.0
 30
0.0
 11
74.07961918664643
 21
26.995631987733987
 31
0.0
  0
LINE
  5
125
330
121
100
AcDbEntity
  8
0
370
-2
100
AcDbLine
 10
109.40451049804688
 20
148.3782958984375
 30
0.0
 11
105.5304019625253
 21
149.37392788617154
 31
0.0
  0
INSERT
  5
126
330
121
100
AcDbEntity
  8
0
100
AcDbBlockReference
  2
_CLOSEDFILLED
 10
74.07961918664643
 20
26.995631987733987
 30
0.0
 50
255.58709751407144
  0
INSERT
  5
128
330
121
100
AcDbEntity
  8
0
100
AcDbBlockReference
  2
_CLOSEDFILLED
 10
105.5304019625253
 20
149.37392788617154
 30
0.0
 50
75.58709751407144
  0
LINE
  5
12A
330
121
100
AcDbEntity
  8
0
370
-2
100
AcDbLine
 10
74.32852718357994
 20
27.96415912161437
 30
0.0
 11
88.56047058991832
 21
83.3421442675509
 31
0.0
  0
LINE
  5
12B
330
121
100
AcDbEntity
  8
0
370
-2
100
AcDbLine
 10
91.04955055925329
 20
93.02741560635424
 30
0.0
 11
105.28149396559179
 21
148.40540075229117
 31
0.0
  0
MTEXT
  5
12C
330
121
100
AcDbEntity
  8
0
100
AcDbMText
 10
89.80501057458586
 20
88.18477993695276
 30
0.0
 40
1.0
 71
5
  1
126,355052
 11
0.24890799693350987
 21
0.9685271338803823
 31
0.0
  0
POINT
  5
12D
330
121
100
AcDbEntity
  8
DEFPOINTS
100
AcDbPoint
 10
74.07961918664643
 20
26.995631987733987
 30
0.0
  0
POINT
  5
12E
330
121
100
AcDbEntity
  8
DEFPOINTS
100
AcDbPoint
 10
77.95372772216797
 20
26.0
 30
0.0
  0
POINT
  5
12F
330
121
100
AcDbEntity
  8
DEFPOINTS
100
AcDbPoint
 10
109.40451049804688
 20
148.3782958984375
 30
0.0
  0
ENDBLK
  5
123
330
121
100
AcDbEntity
  8
0
100
AcDbBlockEnd
  0
BLOCK
  5
133
330
132
100
AcDbEntity
  8
0
100
AcDbBlockBegin
  2
*D16
 70
1
 10
0.0
 20
0.0
 30
0.0
  3
*D16
  1

  0
LINE
  5
135
330
132
100
AcDbEntity
  8
0
370
-2
100
AcDbLine
 10
110.76814270019531
 20
151.2176971435547
 30
0.0
 11
106.88587452252624
 21
152.18102149010576
 31
0.0
  0
LINE
  5
136
330
132
100
AcDbEntity
  8
0
370
-2
100
AcDbLine
 10
112.94733428955078
 20
160.0
 30
0.0
 11
109.06506611188172
 21
160.96332434655113
 31
0.0
  0
INSERT
  5
137
330
132
100
AcDbEntity
  8
0
100
AcDbBlockReference
  2
_CLOSEDFILLED
 10
106.88587452252624
 20
152.18102149010576
 30
0.0
 50
256.0644030522251
  0
INSERT
  5
139
330
132
100
AcDbEntity
  8
0
100
AcDbBlockReference
  2
_CLOSEDFILLED
 10
109.06506611188172
 20
160.96332434655113
 30
0.0
 50
76.0644030522251
  0
LINE
  5
13B
330
132
100
AcDbEntity
  8
0
370
-2
100
AcDbLine
 10
107.126705609164
 20
153.15158853452303
 30
0.0
 11
108.82423502524395
 21
159.99275730213387
 31
0.0
  0
MTEXT
  5
13C
330
132
100
AcDbEntity
  8
0
100
AcDbMText
 10
106.88358239223456
 20
156.84310789079595
 30
0.0
 40
1.0
 71
5
  1
9,048631
 11
0.24083108663776898
 21
0.9705670444172682
 31
0.0
  0
POINT
  5
13D
330
132
100
AcDbEntity
  8
DEFPOINTS
100
AcDbPoint
 10
106.88587452252624
 20
152.18102149010576
 30
0.0
  0
POINT
  5
13E
330
132
100
AcDbEntity
  8
DEFPOINTS
100
AcDbPoint
 10
110.76814270019531
 20
151.2176971435547
 30
0.0
  0
POINT
  5
13F
330
132
100
AcDbEntity
  8
DEFPOINTS
100
AcDbPoint
 10
112.94733428955078
 20
160.0
 30
0.0
  0
ENDBLK
  5
134
330
132
100
AcDbEntity
  8
0
100
AcDbBlockEnd
  0
BLOCK
  5
143
330
142
100
AcDbEntity
  8
0
100
AcDbBlockBegin
  2
*D17
 70
1
 10
0.0
 20
0.0
 30
0.0
  3
*D17
  1

  0
LINE
  5
145
330
142
100
AcDbEntity
  8
0
370
-2
100
AcDbLine
 10
384.00000093113215
 20
121.0
 30
0.0
 11
388.00000093113135
 21
121.00000250339508
 31
0.0
  0
LINE
  5
146
330
142
100
AcDbEntity
  8
0
370
-2
100
AcDbLine
 10
384.0000305175781
 20
74.0
 30
0.0
 11
388.00003051757733
 21
74.00000250339508
 31
0.0
  0
INSERT
  5
147
330
142
100
AcDbEntity
  8
0
100
AcDbBlockReference
  2
_CLOSEDFILLED
 10
388.00000093113135
 20
121.00000250339508
 30
0.0
 50
90.00003606762733
  0
INSERT
  5
149
330
142
100
AcDbEntity
  8
0
100
AcDbBlockReference
  2
_CLOSEDFILLED
 10
388.00003051757733
 20
74.00000250339508
 30
0.0
 50
-89.99996393237267
  0
LINE
  5
14B
330
142
100
AcDbEntity
  8
0
370
-2
100
AcDbLine
 10
388.0000015606302
 20
120.00000250339528
 30
0.0
 11
388.00001509485554
 21
98.50000250339713
 31
0.0
  0
LINE
  5
14C
330
142
100
AcDbEntity
  8
0
370
-2
100
AcDbLine
 10
388.0000163538532
 20
96.5000025033938
 30
0.0
 11
388.0000298880785
 21
75.00000250339488
 31
0.0
  0
MTEXT
  5
14D
330
142
100
AcDbEntity
  8
0
100
AcDbMText
 10
388.00001572435434
 20
97.50000250339508
 30
0.0
 40
1.0
 71
5
  1
47
 11
6.294988504408524e-07
 21
-0.9999999999998018
 31
0.0
  0
POINT
  5
14E
330
142
100
AcDbEntity
  8
DEFPOINTS
100
AcDbPoint
 10
388.00000093113135
 20
121.00000250339508
 30
0.0
  0
POINT
  5
14F
330
142
100
AcDbEntity
  8
DEFPOINTS
100
AcDbPoint
 10
384.00000093113215
 20
121.0
 30
0.0
  0
POINT
  5
150
330
142
100
AcDbEntity
  8
DEFPOINTS
100
AcDbPoint
 10
384.0000305175781
 20
74.0
 30
0.0
  0
ENDBLK
  5
144
330
142
100
AcDbEntity
  8
0
100
AcDbBlockEnd
  0
BLOCK
  5
154
330
153
100
AcDbEntity
  8
0
100
AcDbBlockBegin
  2
*D18
 70
1
 10
0.0
 20
0.0
 30
0.0
  3
*D18
  1

  0
LINE
  5
156
330
153
100
AcDbEntity
  8
0
370
-2
100
AcDbLine
 10
341.0
 20
57.0
 30
0.0
 11
337.0
 21
57.0
 31
0.0
  0
LINE
  5
157
330
153
100
AcDbEntity
  8
0
370
-2
100
AcDbLine
 10
341.0
 20
131.0
 30
0.0
 11
337.0
 21
131.0
 31
0.0
  0
INSERT
  5
158
330
153
100
AcDbEntity
  8
0
100
AcDbBlockReference
  2
_CLOSEDFILLED
 10
337.0
 20
57.0
 30
0.0
 50
270.0
  0
INSERT
  5
15A
330
153
100
AcDbEntity
  8
0
100
AcDbBlockReference
  2
_CLOSEDFILLED
 10
337.0
 20
131.0
 30
0.0
 50
90.0
  0
LINE
  5
15C
330
153
100
AcDbEntity
  8
0
370
-2
100
AcDbLine
 10
337.0
 20
58.0
 30
0.0
 11
337.0
 21
93.0
 31
0.0
  0
LINE
  5
15D
330
153
100
AcDbEntity
  8
0
370
-2
100
AcDbLine
 10
337.0
 20
95.0
 30
0.0
 11
337.0
 21
130.0
 31
0.0
  0
MTEXT
  5
15E
330
153
100
AcDbEntity
  8
0
100
AcDbMText
 10
337.0
 20
94.0
 30
0.0
 40
1.0
 71
5
  1
74
 11
6.123233995736766e-17
 21
1.0
 31
0.0
  0
POINT
  5
15F
330
153
100
AcDbEntity
  8
DEFPOINTS
100
AcDbPoint
 10
337.0
 20
57.0
 30
0.0
  0
POINT
  5
160
330
153
100
AcDbEntity
  8
DEFPOINTS
100
AcDbPoint
 10
341.0
 20
57.0
 30
0.0
  0
POINT
  5
161
330
153
100
AcDbEntity
  8
DEFPOINTS
100
AcDbPoint
 10
341.0
 20
131.0
 30
0.0
  0
ENDBLK
  5
155
330
153
100
AcDbEntity
  8
0
100
AcDbBlockEnd
  0
BLOCK
  5
165
330
164
100
AcDbEntity
  8
0
100
AcDbBlockBegin
  2
*D19
 70
1
 10
0.0
 20
0.0
 30
0.0
  3
*D19
  1

  0
LINE
  5
167
330
164
100
AcDbEntity
  8
0
370
-2
100
AcDbLine
 10
78.0
 20
169.7058868408203
 30
0.0
 11
81.92232275167947
 21
170.49035113679406
 31
0.0
  0
LINE
  5
168
330
164
100
AcDbEntity
  8
0
370
-2
100
AcDbLine
 10
82.70587921142578
 20
146.17648315429688
 30
0.0
 11
86.62820196310524
 21
146.96094745027068
 31
0.0
  0
INSERT
  5
169
330
164
100
AcDbEntity
  8
0
100
AcDbBlockReference
  2
_CLOSEDFILLED
 10
81.92232275167947
 20
170.49035113679406
 30
0.0
 50
101.3099289013046
  0
INSERT
  5
16B
330
164
100
AcDbEntity
  8
0
100
AcDbBlockReference
  2
_CLOSEDFILLED
 10
86.62820196310524
 20
146.96094745027068
 30
0.0
 50
-78.6900710986954
  0
LINE
  5
16D
330
164
100
AcDbEntity
  8
0
370
-2
100
AcDbLine
 10
82.11843882567291
 20
169.5097704488742
 30
0.0
 11
83.39274002442203
 21
163.1382623891713
 31
0.0
  0
LINE
  5
16E
330
164
100
AcDbEntity
  8
0
370
-2
100
AcDbLine
 10
85.15778469036277
 20
154.3130361978934
 30
0.0
 11
86.4320858891118
 21
147.94152813819053
 31
0.0
  0
MTEXT
  5
16F
330
164
100
AcDbEntity
  8
0
100
AcDbMText
 10
84.27526235739236
 20
158.72564929353237
 30
0.0
 40
1.0
 71
5
  1
23,995377
 11
0.19611607399343758
 21
-0.9805806879198675
 31
0.0
  0
POINT
  5
170
330
164
100
AcDbEntity
  8
DEFPOINTS
100
AcDbPoint
 10
81.92232275167947
 20
170.49035113679406
 30
0.0
  0
POINT
  5
171
330
164
100
AcDbEntity
  8
DEFPOINTS
100
AcDbPoint
 10
78.0
 20
169.7058868408203
 30
0.0
  0
POINT
  5
172
330
164
100
AcDbEntity
  8
DEFPOINTS
100
AcDbPoint
 10
82.70587921142578
 20
146.17648315429688
 30
0.0
  0
ENDBLK
  5
166
330
164
100
AcDbEntity
  8
0
100
AcDbBlockEnd
  0
BLOCK
  5
176
330
175
100
AcDbEntity
  8
0
100
AcDbBlockBegin
  2
*D20
 70
1
 10
0.0
 20
0.0
 30
0.0
  3
*D20
  1

  0
LINE
  5
178
330
175
100
AcDbEntity
  8
0
370
-2
100
AcDbLine
 10
84.70587921142578
 20
141.21218872070312
 30
0.0
 11
88.58846188673554
 21
142.17424473226612
 31
0.0
  0
LINE
  5
179
330
175
100
AcDbEntity
  8
0
370
-2
100
AcDbLine
 10
113.25403594970703
 20
26.0
 30
0.0
 11
117.13661862501681
 21
26.962056011562936
 31
0.0
  0
INSERT
  5
17A
330
175
100
AcDbEntity
  8
0
100
AcDbBlockReference
  2
_CLOSEDFILLED
 10
88.58846188673554
 20
142.17424473226612
 30
0.0
 50
103.9168792048182
  0
INSERT
  5
17C
330
175
100
AcDbEntity
  8
0
100
AcDbBlockReference
  2
_CLOSEDFILLED
 10
117.13661862501681
 20
26.962056011562936
 30
0.0
 50
-76.0831207951818
  0
LINE
  5
17E
330
175
100
AcDbEntity
  8
0
370
-2
100
AcDbLine
 10
88.82897588962628
 20
141.20359906343867
 30
0.0
 11
101.65997024142241
 21
89.42137871605196
 31
0.0
  0
LINE
  5
17F
330
175
100
AcDbEntity
  8
0
370
-2
100
AcDbLine
 10
104.06511027032981
 20
79.71492202777763
 30
0.0
 11
116.89610462212607
 21
27.93270168039038
 31
0.0
  0
MTEXT
  5
180
330
175
100
AcDbEntity
  8
0
100
AcDbMText
 10
102.86254025587618
 20
84.56815037191453
 30
0.0
 40
1.0
 71
5
  1
118,696443
 11
0.24051400289073993
 21
-0.9706456688274425
 31
0.0
  0
POINT
  5
181
330
175
100
AcDbEntity
  8
DEFPOINTS
100
AcDbPoint
 10
88.58846188673554
 20
142.17424473226612
 30
0.0
  0
POINT
  5
182
330
175
100
AcDbEntity
  8
DEFPOINTS
100
AcDbPoint
 10
84.70587921142578
 20
141.21218872070312
 30
0.0
  0
POINT
  5
183
330
175
100
AcDbEntity
  8
DEFPOINTS
100
AcDbPoint
 10
113.25403594970703
 20
26.0
 30
0.0
  0
ENDBLK
  5
177
330
175
100
AcDbEntity
  8
0
100
AcDbBlockEnd
  0
BLOCK
  5
187
330
186
100
AcDbEntity
  8
0
100
AcDbBlockBegin
  2
*D21
 70
1
 10
0.0
 20
0.0
 30
0.0
  3
*D21
  1

  0
LINE
  5
189
330
186
100
AcDbEntity
  8
0
370
-2
100
AcDbLine
 10
212.0
 20
131.0
 30
0.0
 11
212.0
 21
135.0
 31
0.0
  0
LINE
  5
18A
330
186
100
AcDbEntity
  8
0
370
-2
100
AcDbLine
 10
341.0
 20
131.0
 30
0.0
 11
341.0
 21
135.0
 31
0.0
  0
INSERT
  5
18B
330
186
100
AcDbEntity
  8
0
100
AcDbBlockReference
  2
_CLOSEDFILLED
 10
212.0
 20
135.0
 30
0.0
 50
180.0
  0
INSERT
  5
18D
330
186
100
AcDbEntity
  8
0
100
AcDbBlockReference
  2
_CLOSEDFILLED
 10
341.0
 20
135.0
 30
0.0
  0
LINE
  5
18F
330
186
100
AcDbEntity
  8
0
370
-2
100
AcDbLine
 10
213.0
 20
135.0
 30
0.0
 11
275.0
 21
135.0
 31
0.0
  0
LINE
  5
190
330
186
100
AcDbEntity
  8
0
370
-2
100
AcDbLine
 10
278.0
 20
135.0
 30
0.0
 11
340.0
 21
135.0
 31
0.0
  0
MTEXT
  5
191
330
186
100
AcDbEntity
  8
0
100
AcDbMText
 10
276.5
 20
135.0
 30
0.0
 40
1.0
 71
5
  1
129
  0
POINT
  5
192
330
186
100
AcDbEntity
  8
DEFPOINTS
100
AcDbPoint
 10
212.0
 20
135.0
 30
0.0
  0
POINT
  5
193
330
186
100
AcDbEntity
  8
DEFPOINTS
100
AcDbPoint
 10
212.0
 20
131.0
 30
0.0
  0
POINT
  5
194
330
186
100
AcDbEntity
  8
DEFPOINTS
100
AcDbPoint
 10
341.0
 20
131.0
 30
0.0
  0
ENDBLK
  5
188
330
186
100
AcDbEntity
  8
0
100
AcDbBlockEnd
  0
BLOCK
  5
198
330
197
100
AcDbEntity
  8
0
100
AcDbBlockBegin
  2
*D22
 70
1
 10
0.0
 20
0.0
 30
0.0
  3
*D22
  1

  0
LINE
  5
19A
330
197
100
AcDbEntity
  8
0
370
-2
100
AcDbLine
 10
384.0000053376241
 20
114.0
 30
0.0
 11
384.0000053376241
 21
118.0
 31
0.0
  0
LINE
  5
19B
330
197
100
AcDbEntity
  8
0
370
-2
100
AcDbLine
 10
456.0
 20
114.0
 30
0.0
 11
456.0
 21
118.0
 31
0.0
  0
INSERT
  5
19C
330
197
100
AcDbEntity
  8
0
100
AcDbBlockReference
  2
_CLOSEDFILLED
 10
384.0000053376241
 20
118.0
 30
0.0
 50
180.0
  0
INSERT
  5
19E
330
197
100
AcDbEntity
  8
0
100
AcDbBlockReference
  2
_CLOSEDFILLED
 10
456.0
 20
118.0
 30
0.0
  0
LINE
  5
1A0
330
197
100
AcDbEntity
  8
0
370
-2
100
AcDbLine
 10
385.0000053376241
 20
118.0
 30
0.0
 11
415.5000026688137
 21
118.00000000000001
 31
0.0
  0
LINE
  5
1A1
330
197
100
AcDbEntity
  8
0
370
-2
100
AcDbLine
 10
424.5000026688137
 20
118.00000000000001
 30
0.0
 11
455.0
 21
118.0
 31
0.0
  0
MTEXT
  5
1A2
330
197
100
AcDbEntity
  8
0
100
AcDbMText
 10
420.00000266881204
 20
118.0
 30
0.0
 40
1.0
 71
5
  1
71,999995
  0
POINT
  5
1A3
330
197
100
AcDbEntity
  8
DEFPOINTS
100
AcDbPoint
 10
384.0000053376241
 20
118.0
 30
0.0
  0
POINT
  5
1A4
330
197
100
AcDbEntity
  8
DEFPOINTS
100
AcDbPoint
 10
384.0000053376241
 20
114.0
 30
0.0
  0
POINT
  5
1A5
330
197
100
AcDbEntity
  8
DEFPOINTS
100
AcDbPoint
 10
456.0
 20
114.0
 30
0.0
  0
ENDBLK
  5
199
330
197
100
AcDbEntity
  8
0
100
AcDbBlockEnd
  0
BLOCK
  5
1A9
330
1A8
100
AcDbEntity
  8
0
100
AcDbBlockBegin
  2
*D23
 70
1
 10
0.0
 20
0.0
 30
0.0
  3
*D23
  1

  0
LINE
  5
1AB
330
1A8
100
AcDbEntity
  8
0
370
-2
100
AcDbLine
 10
456.0
 20
74.0
 30
0.0
 11
452.0
 21
74.0
 31
0.0
  0
LINE
  5
1AC
330
1A8
100
AcDbEntity
  8
0
370
-2
100
AcDbLine
 10
456.0
 20
114.0
 30
0.0
 11
452.0
 21
114.0
 31
0.0
  0
INSERT
  5
1AD
330
1A8
100
AcDbEntity
  8
0
100
AcDbBlockReference
  2
_CLOSEDFILLED
 10
452.0
 20
74.0
 30
0.0
 50
270.0
  0
INSERT
  5
1AF
330
1A8
100
AcDbEntity
  8
0
100
AcDbBlockReference
  2
_CLOSEDFILLED
 10
452.0
 20
114.0
 30
0.0
 50
90.0
  0
LINE
  5
1B1
330
1A8
100
AcDbEntity
  8
0
370
-2
100
AcDbLine
 10
452.0
 20
75.0
 30
0.0
 11
452.0
 21
93.0
 31
0.0
  0
LINE
  5
1B2
330
1A8
100
AcDbEntity
  8
0
370
-2
100
AcDbLine
 10
452.0
 20
95.0
 30
0.0
 11
452.0
 21
113.0
 31
0.0
  0
MTEXT
  5
1B3
330
1A8
100
AcDbEntity
  8
0
100
AcDbMText
 10
452.0
 20
94.0
 30
0.0
 40
1.0
 71
5
  1
40
 11
6.123233995736766e-17
 21
1.0
 31
0.0
  0
POINT
  5
1B4
330
1A8
100
AcDbEntity
  8
DEFPOINTS
100
AcDbPoint
 10
452.0
 20
74.0
 30
0.0
  0
POINT
  5
1B5
330
1A8
100
AcDbEntity
  8
DEFPOINTS
100
AcDbPoint
 10
456.0
 20
74.0
 30
0.0
  0
POINT
  5
1B6
330
1A8
100
AcDbEntity
  8
DEFPOINTS
100
AcDbPoint
 10
456.0
 20
114.0
 30
0.0
  0
ENDBLK
  5
1AA
330
1A8
100
AcDbEntity
  8
0
100
AcDbBlockEnd
  0
BLOCK
  5
1BA
330
1B9
100
AcDbEntity
  8
0
100
AcDbBlockBegin
  2
*D24
 70
1
 10
0.0
 20
0.0
 30
0.0
  3
*D24
  1

  0
LINE
  5
1BC
330
1B9
100
AcDbEntity
  8
0
370
-2
100
AcDbLine
 10
28.0
 20
100.0
 30
0.0
 11
24.0
 21
100.0
 31
0.0
  0
LINE
  5
1BD
330
1B9
100
AcDbEntity
  8
0
370
-2
100
AcDbLine
 10
28.0
 20
112.0
 30
0.0
 11
24.0
 21
112.0
 31
0.0
  0
INSERT
  5
1BE
330
1B9
100
AcDbEntity
  8
0
100
AcDbBlockReference
  2
_CLOSEDFILLED
 10
24.0
 20
100.0
 30
0.0
 50
270.0
  0
INSERT
  5
1C0
330
1B9
100
AcDbEntity
  8
0
100
AcDbBlockReference
  2
_CLOSEDFILLED
 10
24.0
 20
112.0
 30
0.0
 50
90.0
  0
LINE
  5
1C2
330
1B9
100
AcDbEntity
  8
0
370
-2
100
AcDbLine
 10
24.0
 20
101.0
 30
0.0
 11
24.0
 21
105.0
 31
0.0
  0
LINE
  5
1C3
330
1B9
100
AcDbEntity
  8
0
370
-2
100
AcDbLine
 10
24.0
 20
107.0
 30
0.0
 11
24.0
 21
111.0
 31
0.0
  0
MTEXT
  5
1C4
330
1B9
100
AcDbEntity
  8
0
100
AcDbMText
 10
24.0
 20
106.0
 30
0.0
 40
1.0
 71
5
  1
12
 11
6.123233995736766e-17
 21
1.0
 31
0.0
  0
POINT
  5
1C5
330
1B9
100
AcDbEntity
  8
DEFPOINTS
100
AcDbPoint
 10
24.0
 20
100.0
 30
0.0
  0
POINT
  5
1C6
330
1B9
100
AcDbEntity
  8
DEFPOINTS
100
AcDbPoint
 10
28.0
 20
100.0
 30
0.0
  0
POINT
  5
1C7
330
1B9
100
AcDbEntity
  8
DEFPOINTS
100
AcDbPoint
 10
28.0
 20
112.0
 30
0.0
  0
ENDBLK
  5
1BB
330
1B9
100
AcDbEntity
  8
0
100
AcDbBlockEnd
  0
BLOCK
  5
1CB
330
1CA
100
AcDbEntity
  8
0
100
AcDbBlockBegin
  2
*D25
 70
1
 10
0.0
 20
0.0
 30
0.0
  3
*D25
  1

  0
LINE
  5
1CD
330
1CA
100
AcDbEntity
  8
0
370
-2
100
AcDbLine
 10
42.0
 20
100.0
 30
0.0
 11
38.0
 21
100.0
 31
0.0
  0
LINE
  5
1CE
330
1CA
100
AcDbEntity
  8
0
370
-2
100
AcDbLine
 10
42.0
 20
110.90908813476562
 30
0.0
 11
38.0
 21
110.90908813476562
 31
0.0
  0
INSERT
  5
1CF
330
1CA
100
AcDbEntity
  8
0
100
AcDbBlockReference
  2
_CLOSEDFILLED
 10
38.0
 20
100.0
 30
0.0
 50
270.0
  0
INSERT
  5
1D1
330
1CA
100
AcDbEntity
  8
0
100
AcDbBlockReference
  2
_CLOSEDFILLED
 10
38.0
 20
110.90908813476562
 30
0.0
 50
90.0
  0
LINE
  5
1D3
330
1CA
100
AcDbEntity
  8
0
370
-2
100
AcDbLine
 10
38.0
 20
101.0
 30
0.0
 11
38.0
 21
109.90908813476562
 31
0.0
  0
MTEXT
  5
1D4
330
1CA
100
AcDbEntity
  8
0
100
AcDbMText
 10
36.875
 20
105.45454406738281
 30
0.0
 40
1.0
 71
5
  1
10,909088
 11
6.123233995736766e-17
 21
1.0
 31
0.0
  0
POINT
  5
1D5
330
1CA
100
AcDbEntity
  8
DEFPOINTS
100
AcDbPoint
 10
38.0
 20
100.0
 30
0.0
  0
POINT
  5
1D6
330
1CA
100
AcDbEntity
  8
DEFPOINTS
100
AcDbPoint
 10
42.0
 20
100.0
 30
0.0
  0
POINT
  5
1D7
330
1CA
100
AcDbEntity
  8
DEFPOINTS
100
AcDbPoint
 10
42.0
 20
110.90908813476562
 30
0.0
  0
ENDBLK
  5
1CC
330
1CA
100
AcDbEntity
  8
0
100
AcDbBlockEnd
  0
ENDSEC
  0
SECTION
  2
ENTITIES
  0
LINE
  5
2D
330
17
100
AcDbEntity
  8
0
100
AcDbLine
 10
95.68648005054348
 20
95.0
 30
0.0
 11
96.1566885525784
 21
95.0
 31
0.0
  0
DIMENSION
  5
2E
330
17
100
AcDbEntity
  8
0
100
AcDbDimension
280
0
  2
*D1
  3
Standard
 10
95.68648005054348
 20
99.0
 30
0.0
 11
95.92158430156094
 21
100.125
 31
0.0
 70
32
 71
5
  1
<>
100
AcDbAlignedDimension
 13
95.68648005054348
 23
95.0
 33
0.0
 14
96.1566885525784
 24
95.0
 34
0.0
 50
0.0
100
AcDbRotatedDimension
1001
ACAD
1000
DSTYLE
1002
{
1070
41
1040
1.0
1070
173
1070
0
1070
142
1040
0.0
1070
342
1005
0
1002
}
  0
LINE
  5
43
330
17
100
AcDbEntity
  8
0
100
AcDbLine
 10
456.0
 20
95.0
 30
0.0
 11
464.00001688206726
 21
95.0
 31
0.0
  0
DIMENSION
  5
44
330
17
100
AcDbEntity
  8
0
100
AcDbDimension
280
0
  2
*D2
  3
Standard
 10
456.0
 20
99.0
 30
0.0
 11
460.00000844103363
 21
100.125
 31
0.0
 70
32
 71
5
  1
<>
100
AcDbAlignedDimension
 13
456.0
 23
95.0
 33
0.0
 14
464.00001688206726
 24
95.0
 34
0.0
 50
0.0
100
AcDbRotatedDimension
1001
ACAD
1000
DSTYLE
1002
{
1070
41
1040
1.0
1070
173
1070
0
1070
142
1040
0.0
1070
342
1005
0
1002
}
  0
LINE
  5
53
330
17
100
AcDbEntity
  8
0
100
AcDbLine
 10
341.0
 20
65.0
 30
0.0
 11
459.0
 21
65.0
 31
0.0
  0
DIMENSION
  5
54
330
17
100
AcDbEntity
  8
0
100
AcDbDimension
280
0
  2
*D3
  3
Standard
 10
341.0
 20
69.0
 30
0.0
 11
400.0
 21
69.0
 31
0.0
 70
32
 71
5
  1
<>
100
AcDbAlignedDimension
 13
341.0
 23
65.0
 33
0.0
 14
459.0
 24
65.0
 34
0.0
 50
0.0
100
AcDbRotatedDimension
1001
ACAD
1000
DSTYLE
1002
{
1070
41
1040
1.0
1070
173
1070
0
1070
142
1040
0.0
1070
342
1005
0
1002
}
  0
LINE
  5
64
330
17
100
AcDbEntity
  8
0
100
AcDbLine
 10
212.0
 20
57.0
 30
0.0
 11
341.0
 21
57.0
 31
0.0
  0
DIMENSION
  5
65
330
17
100
AcDbEntity
  8
0
100
AcDbDimension
280
0
  2
*D4
  3
Standard
 10
212.0
 20
61.0
 30
0.0
 11
276.5
 21
61.0
 31
0.0
 70
32
 71
5
  1
<>
100
AcDbAlignedDimension
 13
212.0
 23
57.0
 33
0.0
 14
341.0
 24
57.0
 34
0.0
 50
0.0
100
AcDbRotatedDimension
1001
ACAD
1000
DSTYLE
1002
{
1070
41
1040
1.0
1070
173
1070
0
1070
142
1040
0.0
1070
342
1005
0
1002
}
  0
LINE
  5
75
330
17
100
AcDbEntity
  8
0
100
AcDbLine
 10
78.0
 20
26.18005028837521
 30
0.0
 11
78.0
 21
169.7058868408203
 31
0.0
  0
DIMENSION
  5
76
330
17
100
AcDbEntity
  8
0
100
AcDbDimension
280
0
  2
*D5
  3
Standard
 10
74.0
 20
26.18005028837521
 30
0.0
 11
74.0
 21
97.94296856459776
 31
0.0
 70
32
 71
5
  1
<>
100
AcDbAlignedDimension
 13
78.0
 23
26.18005028837521
 33
0.0
 14
78.0
 24
169.7058868408203
 34
0.0
 50
90.0
100
AcDbRotatedDimension
1001
ACAD
1000
DSTYLE
1002
{
1070
41
1040
1.0
1070
173
1070
0
1070
142
1040
0.0
1070
342
1005
0
1002
}
  0
LINE
  5
86
330
17
100
AcDbEntity
  8
0
100
AcDbLine
 10
384.0000305175781
 20
74.0
 30
0.0
 11
456.0
 21
74.0
 31
0.0
  0
DIMENSION
  5
87
330
17
100
AcDbEntity
  8
0
100
AcDbDimension
280
0
  2
*D6
  3
Standard
 10
384.0000305175781
 20
78.0
 30
0.0
 11
420.00001525878906
 21
78.0
 31
0.0
 70
32
 71
5
  1
<>
100
AcDbAlignedDimension
 13
384.0000305175781
 23
74.0
 33
0.0
 14
456.0
 24
74.0
 34
0.0
 50
0.0
100
AcDbRotatedDimension
1001
ACAD
1000
DSTYLE
1002
{
1070
41
1040
1.0
1070
173
1070
0
1070
142
1040
0.0
1070
342
1005
0
1002
}
  0
LINE
  5
97
330
17
100
AcDbEntity
  8
0
100
AcDbLine
 10
115.0
 20
18.95381736755371
 30
0.0
 11
115.0
 21
168.27239990234375
 31
0.0
  0
DIMENSION
  5
98
330
17
100
AcDbEntity
  8
0
100
AcDbDimension
280
0
  2
*D7
  3
Standard
 10
111.0
 20
18.95381736755371
 30
0.0
 11
111.0
 21
93.61310863494873
 31
0.0
 70
32
 71
5
  1
<>
100
AcDbAlignedDimension
 13
115.0
 23
18.95381736755371
 33
0.0
 14
115.0
 24
168.27239990234375
 34
0.0
 50
90.0
100
AcDbRotatedDimension
1001
ACAD
1000
DSTYLE
1002
{
1070
41
1040
1.0
1070
173
1070
0
1070
142
1040
0.0
1070
342
1005
0
1002
}
  0
LINE
  5
A8
330
17
100
AcDbEntity
  8
0
100
AcDbLine
 10
115.0
 20
143.0
 30
0.0
 11
212.0
 21
143.0
 31
0.0
  0
DIMENSION
  5
A9
330
17
100
AcDbEntity
  8
0
100
AcDbDimension
280
0
  2
*D8
  3
Standard
 10
115.0
 20
147.0
 30
0.0
 11
163.5
 21
147.0
 31
0.0
 70
32
 71
5
  1
<>
100
AcDbAlignedDimension
 13
115.0
 23
143.0
 33
0.0
 14
212.0
 24
143.0
 34
0.0
 50
0.0
100
AcDbRotatedDimension
1001
ACAD
1000
DSTYLE
1002
{
1070
41
1040
1.0
1070
173
1070
0
1070
142
1040
0.0
1070
342
1005
0
1002
}
  0
LINE
  5
B9
330
17
100
AcDbEntity
  8
0
100
AcDbLine
 10
77.95372772216797
 20
26.0
 30
0.0
 11
113.25403594970703
 21
26.0
 31
0.0
  0
DIMENSION
  5
BA
330
17
100
AcDbEntity
  8
0
100
AcDbDimension
280
0
  2
*D9
  3
Standard
 10
77.95372772216797
 20
30.0
 30
0.0
 11
95.6038818359375
 21
30.0
 31
0.0
 70
32
 71
5
  1
<>
100
AcDbAlignedDimension
 13
77.95372772216797
 23
26.0
 33
0.0
 14
113.25403594970703
 24
26.0
 34
0.0
 50
0.0
100
AcDbRotatedDimension
1001
ACAD
1000
DSTYLE
1002
{
1070
41
1040
1.0
1070
173
1070
0
1070
142
1040
0.0
1070
342
1005
0
1002
}
  0
LINE
  5
CA
330
17
100
AcDbEntity
  8
0
100
AcDbLine
 10
341.0
 20
121.0
 30
0.0
 11
456.0
 21
121.0
 31
0.0
  0
DIMENSION
  5
CB
330
17
100
AcDbEntity
  8
0
100
AcDbDimension
280
0
  2
*D10
  3
Standard
 10
341.0
 20
125.0
 30
0.0
 11
398.5
 21
125.0
 31
0.0
 70
32
 71
5
  1
<>
100
AcDbAlignedDimension
 13
341.0
 23
121.0
 33
0.0
 14
456.0
 24
121.0
 34
0.0
 50
0.0
100
AcDbRotatedDimension
1001
ACAD
1000
DSTYLE
1002
{
1070
41
1040
1.0
1070
173
1070
0
1070
142
1040
0.0
1070
342
1005
0
1002
}
  0
LINE
  5
DB
330
17
100
AcDbEntity
  8
0
100
AcDbLine
 10
212.0
 20
39.0
 30
0.0
 11
212.0
 21
143.0
 31
0.0
  0
DIMENSION
  5
DC
330
17
100
AcDbEntity
  8
0
100
AcDbDimension
280
0
  2
*D11
  3
Standard
 10
208.0
 20
39.0
 30
0.0
 11
208.0
 21
91.0
 31
0.0
 70
32
 71
5
  1
<>
100
AcDbAlignedDimension
 13
212.0
 23
39.0
 33
0.0
 14
212.0
 24
143.0
 34
0.0
 50
90.0
100
AcDbRotatedDimension
1001
ACAD
1000
DSTYLE
1002
{
1070
41
1040
1.0
1070
173
1070
0
1070
142
1040
0.0
1070
342
1005
0
1002
}
  0
LINE
  5
EC
330
17
100
AcDbEntity
  8
0
100
AcDbLine
 10
78.0
 20
159.99998474121426
 30
0.0
 11
112.94733428955078
 21
160.0
 31
0.0
  0
DIMENSION
  5
ED
330
17
100
AcDbEntity
  8
0
100
AcDbDimension
280
0
  2
*D12
  3
Standard
 10
77.99999825351077
 20
163.9999847412139
 30
0.0
 11
95.47366539828616
 21
163.99999237060678
 31
0.0
 70
32
 71
5
  1
<>
100
AcDbAlignedDimension
 13
78.0
 23
159.99998474121426
 33
0.0
 14
112.94733428955078
 24
160.0
 34
0.0
 50
2.5016615458851552e-05
100
AcDbRotatedDimension
1001
ACAD
1000
DSTYLE
1002
{
1070
41
1040
1.0
1070
173
1070
0
1070
142
1040
0.0
1070
342
1005
0
1002
}
  0
LINE
  5
FD
330
17
100
AcDbEntity
  8
0
100
AcDbLine
 10
464.0
 20
121.0
 30
0.0
 11
464.0000305175781
 21
74.00000762939453
 31
0.0
  0
DIMENSION
  5
FE
330
17
100
AcDbEntity
  8
0
100
AcDbDimension
280
0
  2
*D13
  3
Standard
 10
467.99999999999915
 20
121.00000262260437
 30
0.0
 11
468.0000152587882
 21
97.50000643730164
 31
0.0
 70
32
 71
5
  1
<>
100
AcDbAlignedDimension
 13
464.0
 23
121.0
 33
0.0
 14
464.0000305175781
 24
74.00000762939453
 34
0.0
 50
-89.99996279726146
100
AcDbRotatedDimension
1001
ACAD
1000
DSTYLE
1002
{
1070
41
1040
1.0
1070
173
1070
0
1070
142
1040
0.0
1070
342
1005
0
1002
}
  0
LINE
  5
10E
330
17
100
AcDbEntity
  8
0
100
AcDbLine
 10
115.0
 20
39.0
 30
0.0
 11
212.0
 21
39.0
 31
0.0
  0
DIMENSION
  5
10F
330
17
100
AcDbEntity
  8
0
100
AcDbDimension
280
0
  2
*D14
  3
Standard
 10
115.0
 20
43.0
 30
0.0
 11
163.5
 21
43.0
 31
0.0
 70
32
 71
5
  1
<>
100
AcDbAlignedDimension
 13
115.0
 23
39.0
 33
0.0
 14
212.0
 24
39.0
 34
0.0
 50
0.0
100
AcDbRotatedDimension
1001
ACAD
1000
DSTYLE
1002
{
1070
41
1040
1.0
1070
173
1070
0
1070
142
1040
0.0
1070
342
1005
0
1002
}
  0
LINE
  5
11F
330
17
100
AcDbEntity
  8
0
100
AcDbLine
 10
77.95372772216797
 20
26.0
 30
0.0
 11
109.40451049804688
 21
148.3782958984375
 31
0.0
  0
DIMENSION
  5
120
330
17
100
AcDbEntity
  8
0
100
AcDbDimension
280
0
  2
*D15
  3
Standard
 10
74.07961918664643
 20
26.995631987733987
 30
0.0
 11
89.80501057458586
 21
88.18477993695276
 31
0.0
 70
32
 71
5
  1
<>
100
AcDbAlignedDimension
 13
77.95372772216797
 23
26.0
 33
0.0
 14
109.40451049804688
 24
148.3782958984375
 34
0.0
 50
75.58709751407144
100
AcDbRotatedDimension
1001
ACAD
1000
DSTYLE
1002
{
1070
41
1040
1.0
1070
173
1070
0
1070
142
1040
0.0
1070
342
1005
0
1002
}
  0
LINE
  5
130
330
17
100
AcDbEntity
  8
0
100
AcDbLine
 10
110.76814270019531
 20
151.2176971435547
 30
0.0
 11
112.94733428955078
 21
160.0
 31
0.0
  0
DIMENSION
  5
131
330
17
100
AcDbEntity
  8
0
100
AcDbDimension
280
0
  2
*D16
  3
Standard
 10
106.88587452252624
 20
152.18102149010576
 30
0.0
 11
106.88358239223456
 21
156.84310789079595
 31
0.0
 70
32
 71
5
  1
<>
100
AcDbAlignedDimension
 13
110.76814270019531
 23
151.2176971435547
 33
0.0
 14
112.94733428955078
 24
160.0
 34
0.0
 50
76.0644030522251
100
AcDbRotatedDimension
1001
ACAD
1000
DSTYLE
1002
{
1070
41
1040
1.0
1070
173
1070
0
1070
142
1040
0.0
1070
342
1005
0
1002
}
  0
LINE
  5
140
330
17
100
AcDbEntity
  8
0
100
AcDbLine
 10
384.00000093113215
 20
121.0
 30
0.0
 11
384.0000305175781
 21
74.0
 31
0.0
  0
DIMENSION
  5
141
330
17
100
AcDbEntity
  8
0
100
AcDbDimension
280
0
  2
*D17
  3
Standard
 10
388.00000093113135
 20
121.00000250339508
 30
0.0
 11
388.00001572435434
 21
97.50000250339508
 31
0.0
 70
32
 71
5
  1
<>
100
AcDbAlignedDimension
 13
384.00000093113215
 23
121.0
 33
0.0
 14
384.0000305175781
 24
74.0
 34
0.0
 50
-89.99996393237267
100
AcDbRotatedDimension
1001
ACAD
1000
DSTYLE
1002
{
1070
41
1040
1.0
1070
173
1070
0
1070
142
1040
0.0
1070
342
1005
0
1002
}
  0
LINE
  5
151
330
17
100
AcDbEntity
  8
0
100
AcDbLine
 10
341.0
 20
57.0
 30
0.0
 11
341.0
 21
131.0
 31
0.0
  0
DIMENSION
  5
152
330
17
100
AcDbEntity
  8
0
100
AcDbDimension
280
0
  2
*D18
  3
Standard
 10
337.0
 20
57.0
 30
0.0
 11
337.0
 21
94.0
 31
0.0
 70
32
 71
5
  1
<>
100
AcDbAlignedDimension
 13
341.0
 23
57.0
 33
0.0
 14
341.0
 24
131.0
 34
0.0
 50
90.0
100
AcDbRotatedDimension
1001
ACAD
1000
DSTYLE
1002
{
1070
41
1040
1.0
1070
173
1070
0
1070
142
1040
0.0
1070
342
1005
0
1002
}
  0
LINE
  5
162
330
17
100
AcDbEntity
  8
0
100
AcDbLine
 10
78.0
 20
169.7058868408203
 30
0.0
 11
82.70587921142578
 21
146.17648315429688
 31
0.0
  0
DIMENSION
  5
163
330
17
100
AcDbEntity
  8
0
100
AcDbDimension
280
0
  2
*D19
  3
Standard
 10
81.92232275167947
 20
170.49035113679406
 30
0.0
 11
84.27526235739236
 21
158.72564929353237
 31
0.0
 70
32
 71
5
  1
<>
100
AcDbAlignedDimension
 13
78.0
 23
169.7058868408203
 33
0.0
 14
82.70587921142578
 24
146.17648315429688
 34
0.0
 50
-78.6900710986954
100
AcDbRotatedDimension
1001
ACAD
1000
DSTYLE
1002
{
1070
41
1040
1.0
1070
173
1070
0
1070
142
1040
0.0
1070
342
1005
0
1002
}
  0
LINE
  5
173
330
17
100
AcDbEntity
  8
0
100
AcDbLine
 10
84.70587921142578
 20
141.21218872070312
 30
0.0
 11
113.25403594970703
 21
26.0
 31
0.0
  0
DIMENSION
  5
174
330
17
100
AcDbEntity
  8
0
100
AcDbDimension
280
0
  2
*D20
  3
Standard
 10
88.58846188673554
 20
142.17424473226612
 30
0.0
 11
102.86254025587618
 21
84.56815037191453
 31
0.0
 70
32
 71
5
  1
<>
100
AcDbAlignedDimension
 13
84.70587921142578
 23
141.21218872070312
 33
0.0
 14
113.25403594970703
 24
26.0
 34
0.0
 50
-76.0831207951818
100
AcDbRotatedDimension
1001
ACAD
1000
DSTYLE
1002
{
1070
41
1040
1.0
1070
173
1070
0
1070
142
1040
0.0
1070
342
1005
0
1002
}
  0
LINE
  5
184
330
17
100
AcDbEntity
  8
0
100
AcDbLine
 10
212.0
 20
131.0
 30
0.0
 11
341.0
 21
131.0
 31
0.0
  0
DIMENSION
  5
185
330
17
100
AcDbEntity
  8
0
100
AcDbDimension
280
0
  2
*D21
  3
Standard
 10
212.0
 20
135.0
 30
0.0
 11
276.5
 21
135.0
 31
0.0
 70
32
 71
5
  1
<>
100
AcDbAlignedDimension
 13
212.0
 23
131.0
 33
0.0
 14
341.0
 24
131.0
 34
0.0
 50
0.0
100
AcDbRotatedDimension
1001
ACAD
1000
DSTYLE
1002
{
1070
41
1040
1.0
1070
173
1070
0
1070
142
1040
0.0
1070
342
1005
0
1002
}
  0
LINE
  5
195
330
17
100
AcDbEntity
  8
0
100
AcDbLine
 10
384.0000053376241
 20
114.0
 30
0.0
 11
456.0
 21
114.0
 31
0.0
  0
DIMENSION
  5
196
330
17
100
AcDbEntity
  8
0
100
AcDbDimension
280
0
  2
*D22
  3
Standard
 10
384.0000053376241
 20
118.0
 30
0.0
 11
420.00000266881204
 21
118.0
 31
0.0
 70
32
 71
5
  1
<>
100
AcDbAlignedDimension
 13
384.0000053376241
 23
114.0
 33
0.0
 14
456.0
 24
114.0
 34
0.0
 50
0.0
100
AcDbRotatedDimension
1001
ACAD
1000
DSTYLE
1002
{
1070
41
1040
1.0
1070
173
1070
0
1070
142
1040
0.0
1070
342
1005
0
1002
}
  0
LINE
  5
1A6
330
17
100
AcDbEntity
  8
0
100
AcDbLine
 10
456.0
 20
74.0
 30
0.0
 11
456.0
 21
114.0
 31
0.0
  0
DIMENSION
  5
1A7
330
17
100
AcDbEntity
  8
0
100
AcDbDimension
280
0
  2
*D23
  3
Standard
 10
452.0
 20
74.0
 30
0.0
 11
452.0
 21
94.0
 31
0.0
 70
32
 71
5
  1
<>
100
AcDbAlignedDimension
 13
456.0
 23
74.0
 33
0.0
 14
456.0
 24
114.0
 34
0.0
 50
90.0
100
AcDbRotatedDimension
1001
ACAD
1000
DSTYLE
1002
{
1070
41
1040
1.0
1070
173
1070
0
1070
142
1040
0.0
1070
342
1005
0
1002
}
  0
LINE
  5
1B7
330
17
100
AcDbEntity
  8
0
100
AcDbLine
 10
28.0
 20
100.0
 30
0.0
 11
28.0
 21
112.0
 31
0.0
  0
DIMENSION
  5
1B8
330
17
100
AcDbEntity
  8
0
100
AcDbDimension
280
0
  2
*D24
  3
Standard
 10
24.0
 20
100.0
 30
0.0
 11
24.0
 21
106.0
 31
0.0
 70
32
 71
5
  1
<>
100
AcDbAlignedDimension
 13
28.0
 23
100.0
 33
0.0
 14
28.0
 24
112.0
 34
0.0
 50
90.0
100
AcDbRotatedDimension
1001
ACAD
1000
DSTYLE
1002
{
1070
41
1040
1.0
1070
173
1070
0
1070
142
1040
0.0
1070
342
1005
0
1002
}
  0
LINE
  5
1C8
330
17
100
AcDbEntity
  8
0
100
AcDbLine
 10
42.0
 20
100.0
 30
0.0
 11
42.0
 21
110.90908813476562
 31
0.0
  0
DIMENSION
  5
1C9
330
17
100
AcDbEntity
  8
0
100
AcDbDimension
280
0
  2
*D25
  3
Standard
 10
38.0
 20
100.0
 30
0.0
 11
36.875
 21
105.45454406738281
 31
0.0
 70
32
 71
5
  1
<>
100
AcDbAlignedDimension
 13
42.0
 23
100.0
 33
0.0
 14
42.0
 24
110.90908813476562
 34
0.0
 50
90.0
100
AcDbRotatedDimension
1001
ACAD
1000
DSTYLE
1002
{
1070
41
1040
1.0
1070
173
1070
0
1070
142
1040
0.0
1070
342
1005
0
1002
}
  0
ENDSEC
  0
SECTION
  2
OBJECTS
  0
DICTIONARY
  5
A
330
0
100
AcDbDictionary
281
1
  3
ACAD_COLOR
350
B
  3
ACAD_GROUP
350
C
  3
ACAD_LAYOUT
350
D
  3
ACAD_MATERIAL
350
E
  3
ACAD_MLEADERSTYLE
350
F
  3
ACAD_MLINESTYLE
350
10
  3
ACAD_PLOTSETTINGS
350
11
  3
ACAD_PLOTSTYLENAME
350
12
  3
ACAD_SCALELIST
350
14
  3
ACAD_TABLESTYLE
350
15
  3
ACAD_VISUALSTYLE
350
16
  0
DICTIONARY
  5
B
330
A
100
AcDbDictionary
281
1
  0
DICTIONARY
  5
C
330
A
100
AcDbDictionary
281
1
  0
DICTIONARY
  5
D
330
A
100
AcDbDictionary
281
1
  3
Model
350
1A
  3
Layout1
350
1E
  0
DICTIONARY
  5
E
330
A
100
AcDbDictionary
281
1
  3
ByBlock
350
1F
  3
ByLayer
350
20
  3
Global
350
21
  0
DICTIONARY
  5
F
330
A
100
AcDbDictionary
281
1
  3
Standard
350
2C
  0
DICTIONARY
  5
10
330
A
100
AcDbDictionary
281
1
  3
Standard
350
22
  0
DICTIONARY
  5
11
330
A
100
AcDbDictionary
281
1
  0
ACDBDICTIONARYWDFLT
  5
12
330
A
100
AcDbDictionary
281
1
  3
Normal
350
13
100
AcDbDictionaryWithDefault
340
13
  0
ACDBPLACEHOLDER
  5
13
330
12
  0
DICTIONARY
  5
14
330
A
100
AcDbDictionary
281
1
  0
DICTIONARY
  5
15
330
A
100
AcDbDictionary
281
1
  0
DICTIONARY
  5
16
330
A
100
AcDbDictionary
281
1
  0
LAYOUT
  5
1A
330
D
100
AcDbPlotSettings
  1

  2
Adobe PDF
  4
A4
  6

 40
3.175
 41
3.175
 42
3.175
 43
3.175
 44
209.91
 45
297.03
 46
0.0
 47
0.0
 48
0.0
 49
0.0
140
0.0
141
0.0
142
1.0
143
1.0
 70
1024
 72
0
 73
1
 74
5
  7

 75
16
 76
0
 77
2
 78
300
147
1.0
148
0.0
149
0.0
100
AcDbLayout
  1
Model
 70
1
 71
0
 10
-3.175
 20
-3.175
 11
293.857
 21
206.735
 12
0.0
 22
0.0
 32
0.0
 14
29.068
 24
20.356
 34
0.0
 15
261.614
 25
183.204
 35
0.0
146
0.0
 13
0.0
 23
0.0
 33
0.0
 16
1.0
 26
0.0
 36
0.0
 17
0.0
 27
1.0
 37
0.0
 76
1
330
17
  0
LAYOUT
  5
1E
330
D
100
AcDbPlotSettings
  1

  2
Adobe PDF
  4
A4
  6

 40
3.175
 41
3.175
 42
3.175
 43
3.175
 44
209.91
 45
297.03
 46
0.0
 47
0.0
 48
0.0
 49
0.0
140
0.0
141
0.0
142
1.0
143
1.0
 70
0
 72
0
 73
1
 74
5
  7

 75
16
 76
0
 77
2
 78
300
147
1.0
148
0.0
149
0.0
100
AcDbLayout
  1
Layout1
 70
1
 71
1
 10
-3.175
 20
-3.175
 11
293.857
 21
206.735
 12
0.0
 22
0.0
 32
0.0
 14
29.068
 24
20.356
 34
0.0
 15
261.614
 25
183.204
 35
0.0
146
0.0
 13
0.0
 23
0.0
 33
0.0
 16
1.0
 26
0.0
 36
0.0
 17
0.0
 27
1.0
 37
0.0
 76
1
330
1B
  0
MATERIAL
  5
1F
102
{ACAD_REACTORS
330
E
102
}
330
E
100
AcDbMaterial
  1
ByBlock
  2

 70
0
 40
1.0
 71
1
 41
1.0
 91
-1023410177
 42
1.0
 72
1
  3

 73
1
 74
1
 75
1
 44
0.5
 73
0
 45
1.0
 46
1.0
 77
1
  4

 78
1
 79
1
170
1
 48
1.0
171
1
  6

172
1
173
1
174
1
140
1.0
141
1.0
175
1
  7

176
1
177
1
178
1
143
1.0
179
1
  8

270
1
271
1
272
1
145
1.0
146
1.0
273
1
  9

274
1
275
1
276
1
 42
1.0
 72
1
  3

 73
1
 74
1
 75
1
 94
63
  0
MATERIAL
  5
20
102
{ACAD_REACTORS
330
E
102
}
330
E
100
AcDbMaterial
  1
ByLayer
  2

 70
0
 40
1.0
 71
1
 41
1.0
 91
-1023410177
 42
1.0
 72
1
  3

 73
1
 74
1
 75
1
 44
0.5
 73
0
 45
1.0
 46
1.0
 77
1
  4

 78
1
 79
1
170
1
 48
1.0
171
1
  6

172
1
173
1
174
1
140
1.0
141
1.0
175
1
  7

176
1
177
1
178
1
143
1.0
179
1
  8

270
1
271
1
272
1
145
1.0
146
1.0
273
1
  9

274
1
275
1
276
1
 42
1.0
 72
1
  3

 73
1
 74
1
 75
1
 94
63
  0
MATERIAL
  5
21
102
{ACAD_REACTORS
330
E
102
}
330
E
100
AcDbMaterial
  1
Global
  2

 70
0
 40
1.0
 71
1
 41
1.0
 91
-1023410177
 42
1.0
 72
1
  3

 73
1
 74
1
 75
1
 44
0.5
 73
0
 45
1.0
 46
1.0
 77
1
  4

 78
1
 79
1
170
1
 48
1.0
171
1
  6

172
1
173
1
174
1
140
1.0
141
1.0
175
1
  7

176
1
177
1
178
1
143
1.0
179
1
  8

270
1
271
1
272
1
145
1.0
146
1.0
273
1
  9

274
1
275
1
276
1
 42
1.0
 72
1
  3

 73
1
 74
1
 75
1
 94
63
  0
MLINESTYLE
  5
22
102
{ACAD_REACTORS
330
10
102
}
330
10
100
AcDbMlineStyle
  2
Standard
 70
0
  3

 62
256
 51
90.0
 52
90.0
 71
2
 49
0.5
 62
256
  6
BYLAYER
 49
-0.5
 62
256
  6
BYLAYER
  0
MLEADERSTYLE
  5
2C
102
{ACAD_REACTORS
330
F
102
}
330
F
100
AcDbMLeaderStyle
179
2
170
2
171
1
172
0
 90
2
 40
0.0
 41
0.0
173
1
 91
-1056964608
 92
-2
290
1
 42
2.0
291
1
 43
8.0
  3
Standard
 44
4.0
300

342
29
174
1
175
1
176
0
178
1
 93
-1056964608
 45
4.0
292
0
297
0
 46
4.0
 94
-1056964608
 47
1.0
 49
0.0
140
1.0
294
1
141
0.0
177
0
142
1.0
295
0
296
0
143
3.75
271
0
272
9
272
9
  0
ENDSEC
  0
EOF
