  0
SECTION
  2
HEADER
  9
$ACADVER
  1
AC1024
  9
$ACADMAINTVER
 70
6
  9
$DWGCODEPAGE
  3
ANSI_1252
  9
$LASTSAVEDBY
  1
ezdxf
  9
$INSBASE
 10
0.0
 20
0.0
 30
0.0
  9
$EXTMIN
 10
-100
 20
-100
 30
-100
  9
$EXTMAX
 10
100
 20
100
 30
100
  9
$LIMMIN
 10
0.0
 20
0.0
  9
$LIMMAX
 10
420.0
 20
297.0
  9
$ORTHOMODE
 70
0
  9
$REGENMODE
 70
1
  9
$FILLMODE
 70
1
  9
$QTEXTMODE
 70
0
  9
$MIRRTEXT
 70
1
  9
$LTSCALE
 40
1.0
  9
$ATTMODE
 70
1
  9
$TEXTSIZE
 40
2.5
  9
$TRACEWID
 40
1.0
  9
$TEXTSTYLE
  7
Standard
  9
$CLAYER
  8
0
  9
$CELTYPE
  6
ByLayer
  9
$CECOLOR
 62
256
  9
$CELTSCALE
 40
1.0
  9
$DISPSILH
 70
0
  9
$DIMSCALE
 40
1.0
  9
$DIMASZ
 40
2.5
  9
$DIMEXO
 40
0.625
  9
$DIMDLI
 40
3.75
  9
$DIMRND
 40
0.0
  9
$DIMDLE
 40
0.0
  9
$DIMEXE
 40
1.25
  9
$DIMTP
 40
0.0
  9
$DIMTM
 40
0.0
  9
$DIMTXT
 40
2.5
  9
$DIMCEN
 40
2.5
  9
$DIMTSZ
 40
0.0
  9
$DIMTOL
 70
0
  9
$DIMLIM
 70
0
  9
$DIMTIH
 70
0
  9
$DIMTOH
 70
0
  9
$DIMSE1
 70
0
  9
$DIMSE2
 70
0
  9
$DIMTAD
 70
1
  9
$DIMZIN
 70
8
  9
$DIMBLK
  1

  9
$DIMASO
 70
1
  9
$DIMSHO
 70
1
  9
$DIMPOST
  1

  9
$DIMAPOST
  1

  9
$DIMALT
 70
0
  9
$DIMALTD
 70
3
  9
$DIMALTF
 40
0.03937007874
  9
$DIMLFAC
 40
1.0
  9
$DIMTOFL
 70
1
  9
$DIMTVP
 40
0.0
  9
$DIMTIX
 70
0
  9
$DIMSOXD
 70
0
  9
$DIMSAH
 70
0
  9
$DIMBLK1
  1

  9
$DIMBLK2
  1

  9
$DIMSTYLE
  2
ISO-25
  9
$DIMCLRD
 70
0
  9
$DIMCLRE
 70
0
  9
$DIMCLRT
 70
0
  9
$DIMTFAC
 40
1.0
  9
$DIMGAP
 40
0.625
  9
$DIMJUST
 70
0
  9
$DIMSD1
 70
0
  9
$DIMSD2
 70
0
  9
$DIMTOLJ
 70
0
  9
$DIMTZIN
 70
8
  9
$DIMALTZ
 70
0
  9
$DIMALTTZ
 70
0
  9
$DIMUPT
 70
0
  9
$DIMDEC
 70
2
  9
$DIMTDEC
 70
2
  9
$DIMALTU
 70
2
  9
$DIMALTTD
 70
3
  9
$DIMTXSTY
  7
Standard
  9
$DIMAUNIT
 70
0
  9
$DIMADEC
 70
0
  9
$DIMALTRND
 40
0.0
  9
$DIMAZIN
 70
0
  9
$DIMDSEP
 70
44
  9
$DIMATFIT
 70
3
  9
$DIMFRAC
 70
0
  9
$DIMLDRBLK
  1

  9
$DIMLUNIT
 70
2
  9
$DIMLWD
 70
-2
  9
$DIMLWE
 70
-2
  9
$DIMTMOVE
 70
0
  9
$DIMFXL
 40
1.0
  9
$DIMFXLON
 70
0
  9
$DIMJOGANG
 40
0.785398163397
  9
$DIMTFILL
 70
0
  9
$DIMTFILLCLR
 70
0
  9
$DIMARCSYM
 70
0
  9
$DIMLTYPE
  6

  9
$DIMLTEX1
  6

  9
$DIMLTEX2
  6

  9
$DIMTXTDIRECTION
 70
0
  9
$LUNITS
 70
2
  9
$LUPREC
 70
4
  9
$SKETCHINC
 40
1.0
  9
$FILLETRAD
 40
10.0
  9
$AUNITS
 70
0
  9
$AUPREC
 70
2
  9
$MENU
  1
.
  9
$ELEVATION
 40
0.0
  9
$PELEVATION
 40
0.0
  9
$THICKNESS
 40
0.0
  9
$LIMCHECK
 70
0
  9
$CHAMFERA
 40
0.0
  9
$CHAMFERB
 40
0.0
  9
$CHAMFERC
 40
0.0
  9
$CHAMFERD
 40
0.0
  9
$SKPOLY
 70
0
  9
$TDCREATE
 40
2459189.5555439815
  9
$TDUCREATE
 40
2458532.153996898
  9
$TDUPDATE
 40
2459189.5555439815
  9
$TDUUPDATE
 40
2458532.1544311
  9
$TDINDWG
 40
0.0
  9
$TDUSRTIMER
 40
0.0
  9
$USRTIMER
 70
1
  9
$ANGBASE
 50
0.0
  9
$ANGDIR
 70
0
  9
$PDMODE
 70
0
  9
$PDSIZE
 40
0.0
  9
$PLINEWID
 40
0.0
  9
$SPLFRAME
 70
0
  9
$SPLINETYPE
 70
6
  9
$SPLINESEGS
 70
8
  9
$HANDSEED
  5
142
  9
$SURFTAB1
 70
6
  9
$SURFTAB2
 70
6
  9
$SURFTYPE
 70
6
  9
$SURFU
 70
6
  9
$SURFV
 70
6
  9
$UCSBASE
  2

  9
$UCSNAME
  2

  9
$UCSORG
 10
0.0
 20
0.0
 30
0.0
  9
$UCSXDIR
 10
1.0
 20
0.0
 30
0.0
  9
$UCSYDIR
 10
0.0
 20
1.0
 30
0.0
  9
$UCSORTHOREF
  2

  9
$UCSORTHOVIEW
 70
0
  9
$UCSORGTOP
 10
0.0
 20
0.0
 30
0.0
  9
$UCSORGBOTTOM
 10
0.0
 20
0.0
 30
0.0
  9
$UCSORGLEFT
 10
0.0
 20
0.0
 30
0.0
  9
$UCSORGRIGHT
 10
0.0
 20
0.0
 30
0.0
  9
$UCSORGFRONT
 10
0.0
 20
0.0
 30
0.0
  9
$UCSORGBACK
 10
0.0
 20
0.0
 30
0.0
  9
$PUCSBASE
  2

  9
$PUCSNAME
  2

  9
$PUCSORG
 10
0.0
 20
0.0
 30
0.0
  9
$PUCSXDIR
 10
1.0
 20
0.0
 30
0.0
  9
$PUCSYDIR
 10
0.0
 20
1.0
 30
0.0
  9
$PUCSORTHOREF
  2

  9
$PUCSORTHOVIEW
 70
0
  9
$PUCSORGTOP
 10
0.0
 20
0.0
 30
0.0
  9
$PUCSORGBOTTOM
 10
0.0
 20
0.0
 30
0.0
  9
$PUCSORGLEFT
 10
0.0
 20
0.0
 30
0.0
  9
$PUCSORGRIGHT
 10
0.0
 20
0.0
 30
0.0
  9
$PUCSORGFRONT
 10
0.0
 20
0.0
 30
0.0
  9
$PUCSORGBACK
 10
0.0
 20
0.0
 30
0.0
  9
$USERI1
 70
0
  9
$USERI2
 70
0
  9
$USERI3
 70
0
  9
$USERI4
 70
0
  9
$USERI5
 70
0
  9
$USERR1
 40
0.0
  9
$USERR2
 40
0.0
  9
$USERR3
 40
0.0
  9
$USERR4
 40
0.0
  9
$USERR5
 40
0.0
  9
$WORLDVIEW
 70
1
  9
$SHADEDGE
 70
3
  9
$SHADEDIF
 70
70
  9
$TILEMODE
 70
1
  9
$MAXACTVP
 70
64
  9
$PINSBASE
 10
0.0
 20
0.0
 30
0.0
  9
$PLIMCHECK
 70
0
  9
$PEXTMIN
 10
1e+20
 20
1e+20
 30
1e+20
  9
$PEXTMAX
 10
-1e+20
 20
-1e+20
 30
-1e+20
  9
$PLIMMIN
 10
0.0
 20
0.0
  9
$PLIMMAX
 10
420.0
 20
297.0
  9
$UNITMODE
 70
0
  9
$VISRETAIN
 70
1
  9
$PLINEGEN
 70
0
  9
$PSLTSCALE
 70
1
  9
$TREEDEPTH
 70
3020
  9
$CMLSTYLE
  2
Standard
  9
$CMLJUST
 70
0
  9
$CMLSCALE
 40
20.0
  9
$PROXYGRAPHICS
 70
1
  9
$MEASUREMENT
 70
1
  9
$CELWEIGHT
370
-1
  9
$ENDCAPS
280
0
  9
$JOINSTYLE
280
0
  9
$LWDISPLAY
290
0
  9
$INSUNITS
 70
6
  9
$HYPERLINKBASE
  1

  9
$STYLESHEET
  1

  9
$XEDIT
290
1
  9
$CEPSNTYPE
380
0
  9
$PSTYLEMODE
290
1
  9
$FINGERPRINTGUID
  2
79A40782-36CE-11EB-A827-98AF65C188EB
  9
$VERSIONGUID
  2
79A786F6-36CE-11EB-9FF6-98AF65C188EB
  9
$EXTNAMES
290
1
  9
$PSVPSCALE
 40
0.0
  9
$OLESTARTUP
290
0
  9
$SORTENTS
280
127
  9
$INDEXCTL
280
0
  9
$HIDETEXT
280
1
  9
$XCLIPFRAME
280
2
  9
$HALOGAP
280
0
  9
$OBSCOLOR
 70
257
  9
$OBSLTYPE
280
0
  9
$INTERSECTIONDISPLAY
280
0
  9
$INTERSECTIONCOLOR
 70
257
  9
$DIMASSOC
280
2
  9
$PROJECTNAME
  1

  9
$CAMERADISPLAY
290
0
  9
$LENSLENGTH
 40
50.0
  9
$CAMERAHEIGHT
 40
0.0
  9
$STEPSPERSEC
 40
24.0
  9
$STEPSIZE
 40
100.0
  9
$3DDWFPREC
 40
2.0
  9
$PSOLWIDTH
 40
0.005
  9
$PSOLHEIGHT
 40
0.08
  9
$LOFTANG1
 40
1.570796326795
  9
$LOFTANG2
 40
1.570796326795
  9
$LOFTMAG1
 40
0.0
  9
$LOFTMAG2
 40
0.0
  9
$LOFTPARAM
 70
7
  9
$LOFTNORMALS
280
1
  9
$LATITUDE
 40
37.795
  9
$LONGITUDE
 40
-122.394
  9
$NORTHDIRECTION
 40
0.0
  9
$TIMEZONE
 70
-8000
  9
$LIGHTGLYPHDISPLAY
280
1
  9
$TILEMODELIGHTSYNCH
280
1
  9
$CMATERIAL
347
20
  9
$SOLIDHIST
280
0
  9
$SHOWHIST
280
1
  9
$DWFFRAME
280
2
  9
$DGNFRAME
280
2
  9
$REALWORLDSCALE
290
1
  9
$INTERFERECOLOR
 62
256
  9
$CSHADOW
280
0
  9
$SHADOWPLANELOCATION
 40
0.0
  0
ENDSEC
  0
SECTION
  2
CLASSES
  0
CLASS
  1
ACDBDICTIONARYWDFLT
  2
AcDbDictionaryWithDefault
  3
ObjectDBX Classes
 90
0
 91
0
280
0
281
0
  0
CLASS
  1
SUN
  2
AcDbSun
  3
SCENEOE
 90
1153
 91
0
280
0
281
0
  0
CLASS
  1
VISUALSTYLE
  2
AcDbVisualStyle
  3
ObjectDBX Classes
 90
4095
 91
0
280
0
281
0
  0
CLASS
  1
MATERIAL
  2
AcDbMaterial
  3
ObjectDBX Classes
 90
1153
 91
0
280
0
281
0
  0
CLASS
  1
SCALE
  2
AcDbScale
  3
ObjectDBX Classes
 90
1153
 91
0
280
0
281
0
  0
CLASS
  1
TABLESTYLE
  2
AcDbTableStyle
  3
ObjectDBX Classes
 90
4095
 91
0
280
0
281
0
  0
CLASS
  1
MLEADERSTYLE
  2
AcDbMLeaderStyle
  3
ACDB_MLEADERSTYLE_CLASS
 90
4095
 91
0
280
0
281
0
  0
CLASS
  1
DICTIONARYVAR
  2
AcDbDictionaryVar
  3
ObjectDBX Classes
 90
0
 91
0
280
0
281
0
  0
CLASS
  1
CELLSTYLEMAP
  2
AcDbCellStyleMap
  3
ObjectDBX Classes
 90
1152
 91
0
280
0
281
0
  0
CLASS
  1
MENTALRAYRENDERSETTINGS
  2
AcDbMentalRayRenderSettings
  3
SCENEOE
 90
1024
 91
0
280
0
281
0
  0
CLASS
  1
ACDBDETAILVIEWSTYLE
  2
AcDbDetailViewStyle
  3
ObjectDBX Classes
 90
1025
 91
0
280
0
281
0
  0
CLASS
  1
ACDBSECTIONVIEWSTYLE
  2
AcDbSectionViewStyle
  3
ObjectDBX Classes
 90
1025
 91
0
280
0
281
0
  0
CLASS
  1
RASTERVARIABLES
  2
AcDbRasterVariables
  3
ISM
 90
0
 91
0
280
0
281
0
  0
CLASS
  1
LAYOUT
  2
AcDbLayout
  3
ObjectDBX Classes
 90
0
 91
0
280
0
281
0
  0
CLASS
  1
ACDBPLACEHOLDER
  2
AcDbPlaceHolder
  3
ObjectDBX Classes
 90
0
 91
0
280
0
281
0
  0
ENDSEC
  0
SECTION
  2
TABLES
  0
TABLE
  2
VPORT
  5
8
330
0
100
AcDbSymbolTable
 70
1
  0
VPORT
  5
23
330
8
100
AcDbSymbolTableRecord
100
AcDbViewportTableRecord
  2
*Active
 70
0
 10
0.0
 20
0.0
 11
1.0
 21
1.0
 12
70.0
 22
50.0
 13
0.0
 23
0.0
 14
0.5
 24
0.5
 15
0.5
 25
0.5
 16
0.0
 26
0.0
 36
1.0
 17
0.0
 27
0.0
 37
0.0
 40
1.0
 41
1.34
 42
50.0
 43
0.0
 44
0.0
 50
0.0
 51
0.0
 71
0
 72
1000
 73
1
 74
3
 75
0
 76
0
 77
0
 78
0
281
0
 65
0
146
0.0
  0
ENDTAB
  0
TABLE
  2
LTYPE
  5
2
330
0
100
AcDbSymbolTable
 70
3
  0
LTYPE
  5
24
330
2
100
AcDbSymbolTableRecord
100
AcDbLinetypeTableRecord
  2
ByBlock
 70
0
  3

 72
65
 73
0
 40
0.0
  0
LTYPE
  5
25
330
2
100
AcDbSymbolTableRecord
100
AcDbLinetypeTableRecord
  2
ByLayer
 70
0
  3

 72
65
 73
0
 40
0.0
  0
LTYPE
  5
26
330
2
100
AcDbSymbolTableRecord
100
AcDbLinetypeTableRecord
  2
Continuous
 70
0
  3

 72
65
 73
0
 40
0.0
  0
ENDTAB
  0
TABLE
  2
LAYER
  5
1
330
0
100
AcDbSymbolTable
 70
2
  0
LAYER
  5
27
330
1
100
AcDbSymbolTableRecord
100
AcDbLayerTableRecord
  2
0
 70
0
 62
7
  6
Continuous
370
-3
390
13
347
21
  0
LAYER
  5
28
330
1
100
AcDbSymbolTableRecord
100
AcDbLayerTableRecord
  2
Defpoints
 70
0
 62
7
  6
Continuous
290
0
370
-3
390
13
347
21
  0
ENDTAB
  0
TABLE
  2
STYLE
  5
5
330
0
100
AcDbSymbolTable
 70
1
  0
STYLE
  5
29
330
5
100
AcDbSymbolTableRecord
100
AcDbTextStyleTableRecord
  2
Standard
 70
0
 40
0.0
 41
1.0
 50
0.0
 71
0
 42
2.5
  3
txt
  4

  0
ENDTAB
  0
TABLE
  2
VIEW
  5
7
330
0
100
AcDbSymbolTable
 70
0
  0
ENDTAB
  0
TABLE
  2
UCS
  5
6
330
0
100
AcDbSymbolTable
 70
0
  0
ENDTAB
  0
TABLE
  2
APPID
  5
3
330
0
100
AcDbSymbolTable
 70
2
  0
APPID
  5
2A
330
3
100
AcDbSymbolTableRecord
100
AcDbRegAppTableRecord
  2
ACAD
 70
0
  0
APPID
  5
141
330
3
100
AcDbSymbolTableRecord
100
AcDbRegAppTableRecord
  2
HATCHBACKGROUNDCOLOR
 70
0
  0
ENDTAB
  0
TABLE
  2
DIMSTYLE
  5
4
330
0
100
AcDbSymbolTable
 70
1
100
AcDbDimStyleTable
  0
DIMSTYLE
105
2B
330
4
100
AcDbSymbolTableRecord
100
AcDbDimStyleTableRecord
  2
Standard
 70
0
 40
1.0
 41
2.5
 42
0.625
 43
3.75
 44
1.25
 45
0.0
 46
0.0
 47
0.0
 48
0.0
 49
2.5
140
2.5
141
2.5
142
0.0
143
0.03937007874
144
1.0
145
0.0
146
1.0
147
0.625
148
0.0
 69
0
 70
0
 71
0
 72
0
 73
0
 74
0
 75
0
 76
0
 77
1
 78
8
 79
0
170
0
171
3
172
1
173
0
174
0
175
0
176
0
177
0
178
0
179
0
271
0
272
2
273
2
274
3
275
0
276
0
277
2
278
44
279
0
280
0
281
0
282
0
283
0
284
8
285
0
286
0
288
0
289
3
290
0
371
-2
372
-2
  0
ENDTAB
  0
TABLE
  2
BLOCK_RECORD
  5
9
330
0
100
AcDbSymbolTable
 70
19
  0
BLOCK_RECORD
  5
17
330
9
100
AcDbSymbolTableRecord
100
AcDbBlockTableRecord
  2
*Model_Space
340
1A
 70
0
280
1
281
0
  0
BLOCK_RECORD
  5
1B
330
9
100
AcDbSymbolTableRecord
100
AcDbBlockTableRecord
  2
*Paper_Space
340
1E
 70
0
280
1
281
0
  0
BLOCK_RECORD
  5
2F
330
9
100
AcDbSymbolTableRecord
100
AcDbBlockTableRecord
  2
*D1
340
0
 70
0
280
1
281
0
  0
BLOCK_RECORD
  5
34
330
9
100
AcDbSymbolTableRecord
100
AcDbBlockTableRecord
  2
_CLOSEDFILLED
340
0
 70
0
280
1
281
0
  0
BLOCK_RECORD
  5
44
330
9
100
AcDbSymbolTableRecord
100
AcDbBlockTableRecord
  2
*D2
340
0
 70
0
280
1
281
0
  0
BLOCK_RECORD
  5
55
330
9
100
AcDbSymbolTableRecord
100
AcDbBlockTableRecord
  2
*D3
340
0
 70
0
280
1
281
0
  0
BLOCK_RECORD
  5
66
330
9
100
AcDbSymbolTableRecord
100
AcDbBlockTableRecord
  2
*D4
340
0
 70
0
280
1
281
0
  0
BLOCK_RECORD
  5
77
330
9
100
AcDbSymbolTableRecord
100
AcDbBlockTableRecord
  2
*D5
340
0
 70
0
280
1
281
0
  0
BLOCK_RECORD
  5
88
330
9
100
AcDbSymbolTableRecord
100
AcDbBlockTableRecord
  2
*D6
340
0
 70
0
280
1
281
0
  0
BLOCK_RECORD
  5
99
330
9
100
AcDbSymbolTableRecord
100
AcDbBlockTableRecord
  2
*D7
340
0
 70
0
280
1
281
0
  0
BLOCK_RECORD
  5
AA
330
9
100
AcDbSymbolTableRecord
100
AcDbBlockTableRecord
  2
*D8
340
0
 70
0
280
1
281
0
  0
BLOCK_RECORD
  5
BB
330
9
100
AcDbSymbolTableRecord
100
AcDbBlockTableRecord
  2
*D9
340
0
 70
0
280
1
281
0
  0
BLOCK_RECORD
  5
CC
330
9
100
AcDbSymbolTableRecord
100
AcDbBlockTableRecord
  2
*D10
340
0
 70
0
280
1
281
0
  0
BLOCK_RECORD
  5
DD
330
9
100
AcDbSymbolTableRecord
100
AcDbBlockTableRecord
  2
*D11
340
0
 70
0
280
1
281
0
  0
BLOCK_RECORD
  5
EE
330
9
100
AcDbSymbolTableRecord
100
AcDbBlockTableRecord
  2
*D12
340
0
 70
0
280
1
281
0
  0
BLOCK_RECORD
  5
FF
330
9
100
AcDbSymbolTableRecord
100
AcDbBlockTableRecord
  2
*D13
340
0
 70
0
280
1
281
0
  0
BLOCK_RECORD
  5
110
330
9
100
AcDbSymbolTableRecord
100
AcDbBlockTableRecord
  2
*D14
340
0
 70
0
280
1
281
0
  0
BLOCK_RECORD
  5
121
330
9
100
AcDbSymbolTableRecord
100
AcDbBlockTableRecord
  2
*D15
340
0
 70
0
280
1
281
0
  0
BLOCK_RECORD
  5
132
330
9
100
AcDbSymbolTableRecord
100
AcDbBlockTableRecord
  2
*D16
340
0
 70
0
280
1
281
0
  0
ENDTAB
  0
ENDSEC
  0
SECTION
  2
BLOCKS
  0
BLOCK
  5
18
330
17
100
AcDbEntity
  8
0
100
AcDbBlockBegin
  2
*Model_Space
 70
0
 10
0.0
 20
0.0
 30
0.0
  3
*Model_Space
  1

  0
ENDBLK
  5
19
330
17
100
AcDbEntity
  8
0
100
AcDbBlockEnd
  0
BLOCK
  5
1C
330
1B
100
AcDbEntity
  8
0
100
AcDbBlockBegin
  2
*Paper_Space
 70
0
 10
0.0
 20
0.0
 30
0.0
  3
*Paper_Space
  1

  0
ENDBLK
  5
1D
330
1B
100
AcDbEntity
  8
0
100
AcDbBlockEnd
  0
BLOCK
  5
30
330
2F
100
AcDbEntity
  8
0
100
AcDbBlockBegin
  2
*D1
 70
1
 10
0.0
 20
0.0
 30
0.0
  3
*D1
  1

  0
LINE
  5
32
330
2F
100
AcDbEntity
  8
0
370
-2
100
AcDbLine
 10
413.0
 20
131.0
 30
0.0
 11
409.0
 21
131.0
 31
0.0
  0
LINE
  5
33
330
2F
100
AcDbEntity
  8
0
370
-2
100
AcDbLine
 10
413.0
 20
322.0
 30
0.0
 11
409.0
 21
322.0
 31
0.0
  0
INSERT
  5
38
330
2F
100
AcDbEntity
  8
0
100
AcDbBlockReference
  2
_CLOSEDFILLED
 10
409.0
 20
131.0
 30
0.0
 50
270.0
  0
INSERT
  5
3A
330
2F
100
AcDbEntity
  8
0
100
AcDbBlockReference
  2
_CLOSEDFILLED
 10
409.0
 20
322.0
 30
0.0
 50
90.0
  0
LINE
  5
3C
330
2F
100
AcDbEntity
  8
0
370
-2
100
AcDbLine
 10
409.0
 20
132.0
 30
0.0
 11
409.0
 21
225.0
 31
0.0
  0
LINE
  5
3D
330
2F
100
AcDbEntity
  8
0
370
-2
100
AcDbLine
 10
409.0
 20
228.0
 30
0.0
 11
409.0
 21
321.0
 31
0.0
  0
MTEXT
  5
3E
330
2F
100
AcDbEntity
  8
0
100
AcDbMText
 10
409.0
 20
226.5
 30
0.0
 40
1.0
 71
5
  1
191
 11
6.123233995736766e-17
 21
1.0
 31
0.0
  0
POINT
  5
3F
330
2F
100
AcDbEntity
  8
DEFPOINTS
100
AcDbPoint
 10
409.0
 20
131.0
 30
0.0
  0
POINT
  5
40
330
2F
100
AcDbEntity
  8
DEFPOINTS
100
AcDbPoint
 10
413.0
 20
131.0
 30
0.0
  0
POINT
  5
41
330
2F
100
AcDbEntity
  8
DEFPOINTS
100
AcDbPoint
 10
413.0
 20
322.0
 30
0.0
  0
ENDBLK
  5
31
330
2F
100
AcDbEntity
  8
0
100
AcDbBlockEnd
  0
BLOCK
  5
35
330
34
100
AcDbEntity
  8
0
100
AcDbBlockBegin
  2
_CLOSEDFILLED
 70
0
 10
0.0
 20
0.0
 30
0.0
  3
_CLOSEDFILLED
  1

  0
SOLID
  5
37
330
34
100
AcDbEntity
  8
0
  6
BYBLOCK
 62
0
100
AcDbTrace
 10
-1.0
 20
0.1643989837240255
 30
0.0
 11
0.0
 21
0.0
 31
0.0
 12
-1.0
 22
-0.1643989837240255
 32
0.0
 13
-1.0
 23
-0.1643989837240255
 33
0.0
  0
ENDBLK
  5
36
330
34
100
AcDbEntity
  8
0
100
AcDbBlockEnd
  0
BLOCK
  5
45
330
44
100
AcDbEntity
  8
0
100
AcDbBlockBegin
  2
*D2
 70
1
 10
0.0
 20
0.0
 30
0.0
  3
*D2
  1

  0
LINE
  5
47
330
44
100
AcDbEntity
  8
0
370
-2
100
AcDbLine
 10
390.0
 20
322.0
 30
0.0
 11
390.0
 21
326.0
 31
0.0
  0
LINE
  5
48
330
44
100
AcDbEntity
  8
0
370
-2
100
AcDbLine
 10
413.0
 20
322.0
 30
0.0
 11
413.0
 21
326.0
 31
0.0
  0
INSERT
  5
49
330
44
100
AcDbEntity
  8
0
100
AcDbBlockReference
  2
_CLOSEDFILLED
 10
390.0
 20
326.0
 30
0.0
 50
180.0
  0
INSERT
  5
4B
330
44
100
AcDbEntity
  8
0
100
AcDbBlockReference
  2
_CLOSEDFILLED
 10
413.0
 20
326.0
 30
0.0
  0
LINE
  5
4D
330
44
100
AcDbEntity
  8
0
370
-2
100
AcDbLine
 10
391.0
 20
326.0
 30
0.0
 11
400.5
 21
326.0
 31
0.0
  0
LINE
  5
4E
330
44
100
AcDbEntity
  8
0
370
-2
100
AcDbLine
 10
402.5
 20
326.0
 30
0.0
 11
412.0
 21
326.0
 31
0.0
  0
MTEXT
  5
4F
330
44
100
AcDbEntity
  8
0
100
AcDbMText
 10
401.5
 20
326.0
 30
0.0
 40
1.0
 71
5
  1
23
  0
POINT
  5
50
330
44
100
AcDbEntity
  8
DEFPOINTS
100
AcDbPoint
 10
390.0
 20
326.0
 30
0.0
  0
POINT
  5
51
330
44
100
AcDbEntity
  8
DEFPOINTS
100
AcDbPoint
 10
390.0
 20
322.0
 30
0.0
  0
POINT
  5
52
330
44
100
AcDbEntity
  8
DEFPOINTS
100
AcDbPoint
 10
413.0
 20
322.0
 30
0.0
  0
ENDBLK
  5
46
330
44
100
AcDbEntity
  8
0
100
AcDbBlockEnd
  0
BLOCK
  5
56
330
55
100
AcDbEntity
  8
0
100
AcDbBlockBegin
  2
*D3
 70
1
 10
0.0
 20
0.0
 30
0.0
  3
*D3
  1

  0
LINE
  5
58
330
55
100
AcDbEntity
  8
0
370
-2
100
AcDbLine
 10
174.0
 20
177.0
 30
0.0
 11
174.0
 21
181.0
 31
0.0
  0
LINE
  5
59
330
55
100
AcDbEntity
  8
0
370
-2
100
AcDbLine
 10
220.0
 20
177.0
 30
0.0
 11
220.0
 21
181.0
 31
0.0
  0
INSERT
  5
5A
330
55
100
AcDbEntity
  8
0
100
AcDbBlockReference
  2
_CLOSEDFILLED
 10
174.0
 20
181.0
 30
0.0
 50
180.0
  0
INSERT
  5
5C
330
55
100
AcDbEntity
  8
0
100
AcDbBlockReference
  2
_CLOSEDFILLED
 10
220.0
 20
181.0
 30
0.0
  0
LINE
  5
5E
330
55
100
AcDbEntity
  8
0
370
-2
100
AcDbLine
 10
175.0
 20
181.0
 30
0.0
 11
196.0
 21
181.0
 31
0.0
  0
LINE
  5
5F
330
55
100
AcDbEntity
  8
0
370
-2
100
AcDbLine
 10
198.0
 20
181.0
 30
0.0
 11
219.0
 21
181.0
 31
0.0
  0
MTEXT
  5
60
330
55
100
AcDbEntity
  8
0
100
AcDbMText
 10
197.0
 20
181.0
 30
0.0
 40
1.0
 71
5
  1
46
  0
POINT
  5
61
330
55
100
AcDbEntity
  8
DEFPOINTS
100
AcDbPoint
 10
174.0
 20
181.0
 30
0.0
  0
POINT
  5
62
330
55
100
AcDbEntity
  8
DEFPOINTS
100
AcDbPoint
 10
174.0
 20
177.0
 30
0.0
  0
POINT
  5
63
330
55
100
AcDbEntity
  8
DEFPOINTS
100
AcDbPoint
 10
220.0
 20
177.0
 30
0.0
  0
ENDBLK
  5
57
330
55
100
AcDbEntity
  8
0
100
AcDbBlockEnd
  0
BLOCK
  5
67
330
66
100
AcDbEntity
  8
0
100
AcDbBlockBegin
  2
*D4
 70
1
 10
0.0
 20
0.0
 30
0.0
  3
*D4
  1

  0
LINE
  5
69
330
66
100
AcDbEntity
  8
0
370
-2
100
AcDbLine
 10
234.00003051757812
 20
177.00001525878906
 30
0.0
 11
234.00003112544206
 21
181.000015258789
 31
0.0
  0
LINE
  5
6A
330
66
100
AcDbEntity
  8
0
370
-2
100
AcDbLine
 10
332.0000305175781
 20
177.00000036612263
 30
0.0
 11
332.0000311254421
 21
181.00000036612258
 31
0.0
  0
INSERT
  5
6B
330
66
100
AcDbEntity
  8
0
100
AcDbBlockReference
  2
_CLOSEDFILLED
 10
234.00003112544206
 20
181.000015258789
 30
0.0
 50
179.9999912929905
  0
INSERT
  5
6D
330
66
100
AcDbEntity
  8
0
100
AcDbBlockReference
  2
_CLOSEDFILLED
 10
332.0000311254421
 20
181.00000036612258
 30
0.0
 50
-8.707009510453665e-06
  0
LINE
  5
6F
330
66
100
AcDbEntity
  8
0
370
-2
100
AcDbLine
 10
235.00003112544206
 20
181.000015106823
 30
0.0
 11
282.00003112544414
 21
181.00000796442174
 31
0.0
  0
LINE
  5
70
330
66
100
AcDbEntity
  8
0
370
-2
100
AcDbLine
 10
284.0000311254441
 20
181.00000766048979
 30
0.0
 11
331.0000311254421
 21
181.00000051808857
 31
0.0
  0
MTEXT
  5
71
330
66
100
AcDbEntity
  8
0
100
AcDbMText
 10
283.0000311254421
 20
181.0000078124558
 30
0.0
 40
1.0
 71
5
  1
98
 11
0.9999999999999885
 21
-1.519659839598755e-07
 31
0.0
  0
POINT
  5
72
330
66
100
AcDbEntity
  8
DEFPOINTS
100
AcDbPoint
 10
234.00003112544206
 20
181.000015258789
 30
0.0
  0
POINT
  5
73
330
66
100
AcDbEntity
  8
DEFPOINTS
100
AcDbPoint
 10
234.00003051757812
 20
177.00001525878906
 30
0.0
  0
POINT
  5
74
330
66
100
AcDbEntity
  8
DEFPOINTS
100
AcDbPoint
 10
332.0000305175781
 20
177.00000036612263
 30
0.0
  0
ENDBLK
  5
68
330
66
100
AcDbEntity
  8
0
100
AcDbBlockEnd
  0
BLOCK
  5
78
330
77
100
AcDbEntity
  8
0
100
AcDbBlockBegin
  2
*D5
 70
1
 10
0.0
 20
0.0
 30
0.0
  3
*D5
  1

  0
LINE
  5
7A
330
77
100
AcDbEntity
  8
0
370
-2
100
AcDbLine
 10
332.0000305175781
 20
289.0
 30
0.0
 11
332.0000305175781
 21
293.0
 31
0.0
  0
LINE
  5
7B
330
77
100
AcDbEntity
  8
0
370
-2
100
AcDbLine
 10
390.0
 20
289.0
 30
0.0
 11
390.0
 21
293.0
 31
0.0
  0
INSERT
  5
7C
330
77
100
AcDbEntity
  8
0
100
AcDbBlockReference
  2
_CLOSEDFILLED
 10
332.0000305175781
 20
293.0
 30
0.0
 50
180.0
  0
INSERT
  5
7E
330
77
100
AcDbEntity
  8
0
100
AcDbBlockReference
  2
_CLOSEDFILLED
 10
390.0
 20
293.0
 30
0.0
  0
LINE
  5
80
330
77
100
AcDbEntity
  8
0
370
-2
100
AcDbLine
 10
333.0000305175781
 20
293.0
 30
0.0
 11
356.50001525878906
 21
293.0
 31
0.0
  0
LINE
  5
81
330
77
100
AcDbEntity
  8
0
370
-2
100
AcDbLine
 10
365.50001525878906
 20
293.0
 30
0.0
 11
389.0
 21
293.0
 31
0.0
  0
MTEXT
  5
82
330
77
100
AcDbEntity
  8
0
100
AcDbMText
 10
361.00001525878906
 20
293.0
 30
0.0
 40
1.0
 71
5
  1
57,999969
  0
POINT
  5
83
330
77
100
AcDbEntity
  8
DEFPOINTS
100
AcDbPoint
 10
332.0000305175781
 20
293.0
 30
0.0
  0
POINT
  5
84
330
77
100
AcDbEntity
  8
DEFPOINTS
100
AcDbPoint
 10
332.0000305175781
 20
289.0
 30
0.0
  0
POINT
  5
85
330
77
100
AcDbEntity
  8
DEFPOINTS
100
AcDbPoint
 10
390.0
 20
289.0
 30
0.0
  0
ENDBLK
  5
79
330
77
100
AcDbEntity
  8
0
100
AcDbBlockEnd
  0
BLOCK
  5
89
330
88
100
AcDbEntity
  8
0
100
AcDbBlockBegin
  2
*D6
 70
1
 10
0.0
 20
0.0
 30
0.0
  3
*D6
  1

  0
LINE
  5
8B
330
88
100
AcDbEntity
  8
0
370
-2
100
AcDbLine
 10
332.0000305175781
 20
164.00001525878906
 30
0.0
 11
328.0000305175781
 21
164.00001525878906
 31
0.0
  0
LINE
  5
8C
330
88
100
AcDbEntity
  8
0
370
-2
100
AcDbLine
 10
332.0000305175781
 20
289.0
 30
0.0
 11
328.0000305175781
 21
289.0
 31
0.0
  0
INSERT
  5
8D
330
88
100
AcDbEntity
  8
0
100
AcDbBlockReference
  2
_CLOSEDFILLED
 10
328.0000305175781
 20
164.00001525878906
 30
0.0
 50
270.0
  0
INSERT
  5
8F
330
88
100
AcDbEntity
  8
0
100
AcDbBlockReference
  2
_CLOSEDFILLED
 10
328.0000305175781
 20
289.0
 30
0.0
 50
90.0
  0
LINE
  5
91
330
88
100
AcDbEntity
  8
0
370
-2
100
AcDbLine
 10
328.0000305175781
 20
165.00001525878906
 30
0.0
 11
328.0000305175781
 21
221.50000762939453
 31
0.0
  0
LINE
  5
92
330
88
100
AcDbEntity
  8
0
370
-2
100
AcDbLine
 10
328.0000305175781
 20
231.50000762939453
 30
0.0
 11
328.0000305175781
 21
288.0
 31
0.0
  0
MTEXT
  5
93
330
88
100
AcDbEntity
  8
0
100
AcDbMText
 10
328.0000305175781
 20
226.50000762939453
 30
0.0
 40
1.0
 71
5
  1
124,999985
 11
6.123233995736766e-17
 21
1.0
 31
0.0
  0
POINT
  5
94
330
88
100
AcDbEntity
  8
DEFPOINTS
100
AcDbPoint
 10
328.0000305175781
 20
164.00001525878906
 30
0.0
  0
POINT
  5
95
330
88
100
AcDbEntity
  8
DEFPOINTS
100
AcDbPoint
 10
332.0000305175781
 20
164.00001525878906
 30
0.0
  0
POINT
  5
96
330
88
100
AcDbEntity
  8
DEFPOINTS
100
AcDbPoint
 10
332.0000305175781
 20
289.0
 30
0.0
  0
ENDBLK
  5
8A
330
88
100
AcDbEntity
  8
0
100
AcDbBlockEnd
  0
BLOCK
  5
9A
330
99
100
AcDbEntity
  8
0
100
AcDbBlockBegin
  2
*D7
 70
1
 10
0.0
 20
0.0
 30
0.0
  3
*D7
  1

  0
LINE
  5
9C
330
99
100
AcDbEntity
  8
0
370
-2
100
AcDbLine
 10
220.00000183105467
 20
189.0
 30
0.0
 11
220.00000183105467
 21
193.0
 31
0.0
  0
LINE
  5
9D
330
99
100
AcDbEntity
  8
0
370
-2
100
AcDbLine
 10
234.00002868652493
 20
189.0
 30
0.0
 11
234.00002868652493
 21
193.0
 31
0.0
  0
INSERT
  5
9E
330
99
100
AcDbEntity
  8
0
100
AcDbBlockReference
  2
_CLOSEDFILLED
 10
220.00000183105467
 20
193.0
 30
0.0
 50
180.0
  0
INSERT
  5
A0
330
99
100
AcDbEntity
  8
0
100
AcDbBlockReference
  2
_CLOSEDFILLED
 10
234.00002868652493
 20
193.0
 30
0.0
  0
LINE
  5
A2
330
99
100
AcDbEntity
  8
0
370
-2
100
AcDbLine
 10
221.00000183105467
 20
193.0
 30
0.0
 11
222.50001525878906
 21
192.99999999999983
 31
0.0
  0
LINE
  5
A3
330
99
100
AcDbEntity
  8
0
370
-2
100
AcDbLine
 10
231.50001525878906
 20
192.99999999999983
 30
0.0
 11
233.00002868652493
 21
193.0
 31
0.0
  0
MTEXT
  5
A4
330
99
100
AcDbEntity
  8
0
100
AcDbMText
 10
227.0000152587898
 20
193.0
 30
0.0
 40
1.0
 71
5
  1
14,000027
  0
POINT
  5
A5
330
99
100
AcDbEntity
  8
DEFPOINTS
100
AcDbPoint
 10
220.00000183105467
 20
193.0
 30
0.0
  0
POINT
  5
A6
330
99
100
AcDbEntity
  8
DEFPOINTS
100
AcDbPoint
 10
220.00000183105467
 20
189.0
 30
0.0
  0
POINT
  5
A7
330
99
100
AcDbEntity
  8
DEFPOINTS
100
AcDbPoint
 10
234.00002868652493
 20
189.0
 30
0.0
  0
ENDBLK
  5
9B
330
99
100
AcDbEntity
  8
0
100
AcDbBlockEnd
  0
BLOCK
  5
AB
330
AA
100
AcDbEntity
  8
0
100
AcDbBlockBegin
  2
*D8
 70
1
 10
0.0
 20
0.0
 30
0.0
  3
*D8
  1

  0
LINE
  5
AD
330
AA
100
AcDbEntity
  8
0
370
-2
100
AcDbLine
 10
174.0
 20
277.0
 30
0.0
 11
174.0
 21
281.0
 31
0.0
  0
LINE
  5
AE
330
AA
100
AcDbEntity
  8
0
370
-2
100
AcDbLine
 10
220.00001525878906
 20
277.0
 30
0.0
 11
220.00001525878906
 21
281.0
 31
0.0
  0
INSERT
  5
AF
330
AA
100
AcDbEntity
  8
0
100
AcDbBlockReference
  2
_CLOSEDFILLED
 10
174.0
 20
281.0
 30
0.0
 50
180.0
  0
INSERT
  5
B1
330
AA
100
AcDbEntity
  8
0
100
AcDbBlockReference
  2
_CLOSEDFILLED
 10
220.00001525878906
 20
281.0
 30
0.0
  0
LINE
  5
B3
330
AA
100
AcDbEntity
  8
0
370
-2
100
AcDbLine
 10
175.0
 20
281.0
 30
0.0
 11
192.50000762939453
 21
281.0
 31
0.0
  0
LINE
  5
B4
330
AA
100
AcDbEntity
  8
0
370
-2
100
AcDbLine
 10
201.50000762939453
 20
281.0
 30
0.0
 11
219.00001525878906
 21
281.0
 31
0.0
  0
MTEXT
  5
B5
330
AA
100
AcDbEntity
  8
0
100
AcDbMText
 10
197.00000762939453
 20
281.0
 30
0.0
 40
1.0
 71
5
  1
46,000015
  0
POINT
  5
B6
330
AA
100
AcDbEntity
  8
DEFPOINTS
100
AcDbPoint
 10
174.0
 20
281.0
 30
0.0
  0
POINT
  5
B7
330
AA
100
AcDbEntity
  8
DEFPOINTS
100
AcDbPoint
 10
174.0
 20
277.0
 30
0.0
  0
POINT
  5
B8
330
AA
100
AcDbEntity
  8
DEFPOINTS
100
AcDbPoint
 10
220.00001525878906
 20
277.0
 30
0.0
  0
ENDBLK
  5
AC
330
AA
100
AcDbEntity
  8
0
100
AcDbBlockEnd
  0
BLOCK
  5
BC
330
BB
100
AcDbEntity
  8
0
100
AcDbBlockBegin
  2
*D9
 70
1
 10
0.0
 20
0.0
 30
0.0
  3
*D9
  1

  0
LINE
  5
BE
330
BB
100
AcDbEntity
  8
0
370
-2
100
AcDbLine
 10
234.00001525878906
 20
276.9999694824219
 30
0.0
 11
234.00001404309168
 21
280.9999694824217
 31
0.0
  0
LINE
  5
BF
330
BB
100
AcDbEntity
  8
0
370
-2
100
AcDbLine
 10
332.0000305175781
 20
276.9999992670125
 30
0.0
 11
332.0000293018807
 21
280.99999926701236
 31
0.0
  0
INSERT
  5
C0
330
BB
100
AcDbEntity
  8
0
100
AcDbBlockReference
  2
_CLOSEDFILLED
 10
234.00001404309168
 20
280.9999694824217
 30
0.0
 50
180.00001741358238
  0
INSERT
  5
C2
330
BB
100
AcDbEntity
  8
0
100
AcDbBlockReference
  2
_CLOSEDFILLED
 10
332.0000293018807
 20
280.99999926701236
 30
0.0
 50
1.7413582379103703e-05
  0
LINE
  5
C4
330
BB
100
AcDbEntity
  8
0
370
-2
100
AcDbLine
 10
235.00001404309162
 20
280.99996978634607
 30
0.0
 11
278.5000216724883
 21
280.99998300705744
 31
0.0
  0
LINE
  5
C5
330
BB
100
AcDbEntity
  8
0
370
-2
100
AcDbLine
 10
287.500021672488
 20
280.99998574237657
 30
0.0
 11
331.0000293018808
 21
280.999998963088
 31
0.0
  0
MTEXT
  5
C6
330
BB
100
AcDbEntity
  8
0
100
AcDbMText
 10
283.0000216724862
 20
280.99998437471703
 30
0.0
 40
1.0
 71
5
  1
98,000015
 11
0.9999999999999538
 21
3.039243470826224e-07
 31
0.0
  0
POINT
  5
C7
330
BB
100
AcDbEntity
  8
DEFPOINTS
100
AcDbPoint
 10
234.00001404309168
 20
280.9999694824217
 30
0.0
  0
POINT
  5
C8
330
BB
100
AcDbEntity
  8
DEFPOINTS
100
AcDbPoint
 10
234.00001525878906
 20
276.9999694824219
 30
0.0
  0
POINT
  5
C9
330
BB
100
AcDbEntity
  8
DEFPOINTS
100
AcDbPoint
 10
332.0000305175781
 20
276.9999992670125
 30
0.0
  0
ENDBLK
  5
BD
330
BB
100
AcDbEntity
  8
0
100
AcDbBlockEnd
  0
BLOCK
  5
CD
330
CC
100
AcDbEntity
  8
0
100
AcDbBlockBegin
  2
*D10
 70
1
 10
0.0
 20
0.0
 30
0.0
  3
*D10
  1

  0
LINE
  5
CF
330
CC
100
AcDbEntity
  8
0
370
-2
100
AcDbLine
 10
174.0
 20
177.0
 30
0.0
 11
170.0
 21
177.0
 31
0.0
  0
LINE
  5
D0
330
CC
100
AcDbEntity
  8
0
370
-2
100
AcDbLine
 10
174.0
 20
277.0
 30
0.0
 11
170.0
 21
277.0
 31
0.0
  0
INSERT
  5
D1
330
CC
100
AcDbEntity
  8
0
100
AcDbBlockReference
  2
_CLOSEDFILLED
 10
170.0
 20
177.0
 30
0.0
 50
270.0
  0
INSERT
  5
D3
330
CC
100
AcDbEntity
  8
0
100
AcDbBlockReference
  2
_CLOSEDFILLED
 10
170.0
 20
277.0
 30
0.0
 50
90.0
  0
LINE
  5
D5
330
CC
100
AcDbEntity
  8
0
370
-2
100
AcDbLine
 10
170.0
 20
178.0
 30
0.0
 11
170.0
 21
225.5
 31
0.0
  0
LINE
  5
D6
330
CC
100
AcDbEntity
  8
0
370
-2
100
AcDbLine
 10
170.0
 20
228.5
 30
0.0
 11
170.0
 21
276.0
 31
0.0
  0
MTEXT
  5
D7
330
CC
100
AcDbEntity
  8
0
100
AcDbMText
 10
170.0
 20
227.0
 30
0.0
 40
1.0
 71
5
  1
100
 11
6.123233995736766e-17
 21
1.0
 31
0.0
  0
POINT
  5
D8
330
CC
100
AcDbEntity
  8
DEFPOINTS
100
AcDbPoint
 10
170.0
 20
177.0
 30
0.0
  0
POINT
  5
D9
330
CC
100
AcDbEntity
  8
DEFPOINTS
100
AcDbPoint
 10
174.0
 20
177.0
 30
0.0
  0
POINT
  5
DA
330
CC
100
AcDbEntity
  8
DEFPOINTS
100
AcDbPoint
 10
174.0
 20
277.0
 30
0.0
  0
ENDBLK
  5
CE
330
CC
100
AcDbEntity
  8
0
100
AcDbBlockEnd
  0
BLOCK
  5
DE
330
DD
100
AcDbEntity
  8
0
100
AcDbBlockBegin
  2
*D11
 70
1
 10
0.0
 20
0.0
 30
0.0
  3
*D11
  1

  0
LINE
  5
E0
330
DD
100
AcDbEntity
  8
0
370
-2
100
AcDbLine
 10
220.00001358032227
 20
266.0
 30
0.0
 11
220.00001358032227
 21
270.0
 31
0.0
  0
LINE
  5
E1
330
DD
100
AcDbEntity
  8
0
370
-2
100
AcDbLine
 10
234.00001693725198
 20
266.0
 30
0.0
 11
234.00001693725198
 21
270.0
 31
0.0
  0
INSERT
  5
E2
330
DD
100
AcDbEntity
  8
0
100
AcDbBlockReference
  2
_CLOSEDFILLED
 10
220.00001358032227
 20
270.0
 30
0.0
 50
180.0
  0
INSERT
  5
E4
330
DD
100
AcDbEntity
  8
0
100
AcDbBlockReference
  2
_CLOSEDFILLED
 10
234.00001693725198
 20
270.0
 30
0.0
  0
LINE
  5
E6
330
DD
100
AcDbEntity
  8
0
370
-2
100
AcDbLine
 10
221.00001358032227
 20
270.0
 30
0.0
 11
222.5000152587853
 21
270.0000000000002
 31
0.0
  0
LINE
  5
E7
330
DD
100
AcDbEntity
  8
0
370
-2
100
AcDbLine
 10
231.5000152587853
 20
270.0000000000002
 30
0.0
 11
233.00001693725198
 21
270.0
 31
0.0
  0
MTEXT
  5
E8
330
DD
100
AcDbEntity
  8
0
100
AcDbMText
 10
227.00001525878713
 20
270.0
 30
0.0
 40
1.0
 71
5
  1
14,000003
  0
POINT
  5
E9
330
DD
100
AcDbEntity
  8
DEFPOINTS
100
AcDbPoint
 10
220.00001358032227
 20
270.0
 30
0.0
  0
POINT
  5
EA
330
DD
100
AcDbEntity
  8
DEFPOINTS
100
AcDbPoint
 10
220.00001358032227
 20
266.0
 30
0.0
  0
POINT
  5
EB
330
DD
100
AcDbEntity
  8
DEFPOINTS
100
AcDbPoint
 10
234.00001693725198
 20
266.0
 30
0.0
  0
ENDBLK
  5
DF
330
DD
100
AcDbEntity
  8
0
100
AcDbBlockEnd
  0
BLOCK
  5
EF
330
EE
100
AcDbEntity
  8
0
100
AcDbBlockBegin
  2
*D12
 70
1
 10
0.0
 20
0.0
 30
0.0
  3
*D12
  1

  0
LINE
  5
F1
330
EE
100
AcDbEntity
  8
0
370
-2
100
AcDbLine
 10
234.00001525878906
 20
276.9999694824219
 30
0.0
 11
238.00001525878903
 21
276.9999701976776
 31
0.0
  0
LINE
  5
F2
330
EE
100
AcDbEntity
  8
0
370
-2
100
AcDbLine
 10
234.00003051757812
 20
177.00001525878906
 30
0.0
 11
238.0000305175781
 21
177.0000159740448
 31
0.0
  0
INSERT
  5
F3
330
EE
100
AcDbEntity
  8
0
100
AcDbBlockReference
  2
_CLOSEDFILLED
 10
238.00001525878903
 20
276.9999701976776
 30
0.0
 50
90.00000874264614
  0
INSERT
  5
F5
330
EE
100
AcDbEntity
  8
0
100
AcDbBlockReference
  2
_CLOSEDFILLED
 10
238.0000305175781
 20
177.0000159740448
 30
0.0
 50
-89.99999125735386
  0
LINE
  5
F7
330
EE
100
AcDbEntity
  8
0
370
-2
100
AcDbLine
 10
238.000015411377
 20
275.9999701976776
 30
0.0
 11
238.0000222015377
 21
231.49999308586442
 31
0.0
  0
LINE
  5
F8
330
EE
100
AcDbEntity
  8
0
370
-2
100
AcDbLine
 10
238.00002357482933
 20
222.49999308586086
 30
0.0
 11
238.00003036499012
 21
178.0000159740448
 31
0.0
  0
MTEXT
  5
F9
330
EE
100
AcDbEntity
  8
0
100
AcDbMText
 10
238.00002288818357
 20
226.9999930858612
 30
0.0
 40
1.0
 71
5
  1
99,999954
 11
1.5258796055034624e-07
 21
-0.9999999999999883
 31
0.0
  0
POINT
  5
FA
330
EE
100
AcDbEntity
  8
DEFPOINTS
100
AcDbPoint
 10
238.00001525878903
 20
276.9999701976776
 30
0.0
  0
POINT
  5
FB
330
EE
100
AcDbEntity
  8
DEFPOINTS
100
AcDbPoint
 10
234.00001525878906
 20
276.9999694824219
 30
0.0
  0
POINT
  5
FC
330
EE
100
AcDbEntity
  8
DEFPOINTS
100
AcDbPoint
 10
234.00003051757812
 20
177.00001525878906
 30
0.0
  0
ENDBLK
  5
F0
330
EE
100
AcDbEntity
  8
0
100
AcDbBlockEnd
  0
BLOCK
  5
100
330
FF
100
AcDbEntity
  8
0
100
AcDbBlockBegin
  2
*D13
 70
1
 10
0.0
 20
0.0
 30
0.0
  3
*D13
  1

  0
LINE
  5
102
330
FF
100
AcDbEntity
  8
0
370
-2
100
AcDbLine
 10
390.0
 20
131.0
 30
0.0
 11
390.0
 21
135.0
 31
0.0
  0
LINE
  5
103
330
FF
100
AcDbEntity
  8
0
370
-2
100
AcDbLine
 10
413.0
 20
131.0
 30
0.0
 11
413.0
 21
135.0
 31
0.0
  0
INSERT
  5
104
330
FF
100
AcDbEntity
  8
0
100
AcDbBlockReference
  2
_CLOSEDFILLED
 10
390.0
 20
135.0
 30
0.0
 50
180.0
  0
INSERT
  5
106
330
FF
100
AcDbEntity
  8
0
100
AcDbBlockReference
  2
_CLOSEDFILLED
 10
413.0
 20
135.0
 30
0.0
  0
LINE
  5
108
330
FF
100
AcDbEntity
  8
0
370
-2
100
AcDbLine
 10
391.0
 20
135.0
 30
0.0
 11
400.5
 21
135.0
 31
0.0
  0
LINE
  5
109
330
FF
100
AcDbEntity
  8
0
370
-2
100
AcDbLine
 10
402.5
 20
135.0
 30
0.0
 11
412.0
 21
135.0
 31
0.0
  0
MTEXT
  5
10A
330
FF
100
AcDbEntity
  8
0
100
AcDbMText
 10
401.5
 20
135.0
 30
0.0
 40
1.0
 71
5
  1
23
  0
POINT
  5
10B
330
FF
100
AcDbEntity
  8
DEFPOINTS
100
AcDbPoint
 10
390.0
 20
135.0
 30
0.0
  0
POINT
  5
10C
330
FF
100
AcDbEntity
  8
DEFPOINTS
100
AcDbPoint
 10
390.0
 20
131.0
 30
0.0
  0
POINT
  5
10D
330
FF
100
AcDbEntity
  8
DEFPOINTS
100
AcDbPoint
 10
413.0
 20
131.0
 30
0.0
  0
ENDBLK
  5
101
330
FF
100
AcDbEntity
  8
0
100
AcDbBlockEnd
  0
BLOCK
  5
111
330
110
100
AcDbEntity
  8
0
100
AcDbBlockBegin
  2
*D14
 70
1
 10
0.0
 20
0.0
 30
0.0
  3
*D14
  1

  0
LINE
  5
113
330
110
100
AcDbEntity
  8
0
370
-2
100
AcDbLine
 10
332.0000305175781
 20
164.00001525878906
 30
0.0
 11
332.00003155207287
 21
168.00001525878892
 31
0.0
  0
LINE
  5
114
330
110
100
AcDbEntity
  8
0
370
-2
100
AcDbLine
 10
390.0
 20
164.0000002586237
 30
0.0
 11
390.00000103449474
 21
168.00000025862354
 31
0.0
  0
INSERT
  5
115
330
110
100
AcDbEntity
  8
0
100
AcDbBlockReference
  2
_CLOSEDFILLED
 10
332.00003155207287
 20
168.00001525878892
 30
0.0
 50
179.99998518195483
  0
INSERT
  5
117
330
110
100
AcDbEntity
  8
0
100
AcDbBlockReference
  2
_CLOSEDFILLED
 10
390.00000103449474
 20
168.00000025862354
 30
0.0
 50
-1.4818045177263104e-05
  0
LINE
  5
119
330
110
100
AcDbEntity
  8
0
370
-2
100
AcDbLine
 10
333.0000315520728
 20
168.00001500016523
 30
0.0
 11
356.50001629328335
 21
168.00000892251273
 31
0.0
  0
LINE
  5
11A
330
110
100
AcDbEntity
  8
0
370
-2
100
AcDbLine
 10
365.50001629328307
 20
168.00000659489962
 30
0.0
 11
389.0000010344948
 21
168.00000051724723
 31
0.0
  0
MTEXT
  5
11B
330
110
100
AcDbEntity
  8
0
100
AcDbMText
 10
361.0000162932838
 20
168.00000775870623
 30
0.0
 40
1.0
 71
5
  1
57,999969
 11
0.9999999999999666
 21
-2.586236770525051e-07
 31
0.0
  0
POINT
  5
11C
330
110
100
AcDbEntity
  8
DEFPOINTS
100
AcDbPoint
 10
332.00003155207287
 20
168.00001525878892
 30
0.0
  0
POINT
  5
11D
330
110
100
AcDbEntity
  8
DEFPOINTS
100
AcDbPoint
 10
332.0000305175781
 20
164.00001525878906
 30
0.0
  0
POINT
  5
11E
330
110
100
AcDbEntity
  8
DEFPOINTS
100
AcDbPoint
 10
390.0
 20
164.0000002586237
 30
0.0
  0
ENDBLK
  5
112
330
110
100
AcDbEntity
  8
0
100
AcDbBlockEnd
  0
BLOCK
  5
122
330
121
100
AcDbEntity
  8
0
100
AcDbBlockBegin
  2
*D15
 70
1
 10
0.0
 20
0.0
 30
0.0
  3
*D15
  1

  0
LINE
  5
124
330
121
100
AcDbEntity
  8
0
370
-2
100
AcDbLine
 10
390.0
 20
131.0
 30
0.0
 11
386.0
 21
131.0
 31
0.0
  0
LINE
  5
125
330
121
100
AcDbEntity
  8
0
370
-2
100
AcDbLine
 10
390.0
 20
322.0
 30
0.0
 11
386.0
 21
322.0
 31
0.0
  0
INSERT
  5
126
330
121
100
AcDbEntity
  8
0
100
AcDbBlockReference
  2
_CLOSEDFILLED
 10
386.0
 20
131.0
 30
0.0
 50
270.0
  0
INSERT
  5
128
330
121
100
AcDbEntity
  8
0
100
AcDbBlockReference
  2
_CLOSEDFILLED
 10
386.0
 20
322.0
 30
0.0
 50
90.0
  0
LINE
  5
12A
330
121
100
AcDbEntity
  8
0
370
-2
100
AcDbLine
 10
386.0
 20
132.0
 30
0.0
 11
386.0
 21
225.0
 31
0.0
  0
LINE
  5
12B
330
121
100
AcDbEntity
  8
0
370
-2
100
AcDbLine
 10
386.0
 20
228.0
 30
0.0
 11
386.0
 21
321.0
 31
0.0
  0
MTEXT
  5
12C
330
121
100
AcDbEntity
  8
0
100
AcDbMText
 10
386.0
 20
226.5
 30
0.0
 40
1.0
 71
5
  1
191
 11
6.123233995736766e-17
 21
1.0
 31
0.0
  0
POINT
  5
12D
330
121
100
AcDbEntity
  8
DEFPOINTS
100
AcDbPoint
 10
386.0
 20
131.0
 30
0.0
  0
POINT
  5
12E
330
121
100
AcDbEntity
  8
DEFPOINTS
100
AcDbPoint
 10
390.0
 20
131.0
 30
0.0
  0
POINT
  5
12F
330
121
100
AcDbEntity
  8
DEFPOINTS
100
AcDbPoint
 10
390.0
 20
322.0
 30
0.0
  0
ENDBLK
  5
123
330
121
100
AcDbEntity
  8
0
100
AcDbBlockEnd
  0
BLOCK
  5
133
330
132
100
AcDbEntity
  8
0
100
AcDbBlockBegin
  2
*D16
 70
1
 10
0.0
 20
0.0
 30
0.0
  3
*D16
  1

  0
LINE
  5
135
330
132
100
AcDbEntity
  8
0
370
-2
100
AcDbLine
 10
220.0
 20
177.0
 30
0.0
 11
216.00000000000006
 21
177.00000071525574
 31
0.0
  0
LINE
  5
136
330
132
100
AcDbEntity
  8
0
370
-2
100
AcDbLine
 10
220.00001525878906
 20
277.0
 30
0.0
 11
216.00001525878912
 21
277.00000071525574
 31
0.0
  0
INSERT
  5
137
330
132
100
AcDbEntity
  8
0
100
AcDbBlockReference
  2
_CLOSEDFILLED
 10
216.00000000000006
 20
177.00000071525574
 30
0.0
 50
269.99999125735786
  0
INSERT
  5
139
330
132
100
AcDbEntity
  8
0
100
AcDbBlockReference
  2
_CLOSEDFILLED
 10
216.00001525878912
 20
277.00000071525574
 30
0.0
 50
89.99999125735786
  0
LINE
  5
13B
330
132
100
AcDbEntity
  8
0
370
-2
100
AcDbLine
 10
216.00000015258794
 20
178.00000071525574
 30
0.0
 11
216.0000074005128
 21
225.5000007152539
 31
0.0
  0
LINE
  5
13C
330
132
100
AcDbEntity
  8
0
370
-2
100
AcDbLine
 10
216.00000785827646
 20
228.50000071525756
 30
0.0
 11
216.00001510620123
 21
276.00000071525574
 31
0.0
  0
MTEXT
  5
13D
330
132
100
AcDbEntity
  8
0
100
AcDbMText
 10
216.0000076293946
 20
227.00000071525574
 30
0.0
 40
1.0
 71
5
  1
100
 11
1.525878906062957e-07
 21
0.9999999999999883
 31
0.0
  0
POINT
  5
13E
330
132
100
AcDbEntity
  8
DEFPOINTS
100
AcDbPoint
 10
216.00000000000006
 20
177.00000071525574
 30
0.0
  0
POINT
  5
13F
330
132
100
AcDbEntity
  8
DEFPOINTS
100
AcDbPoint
 10
220.0
 20
177.0
 30
0.0
  0
POINT
  5
140
330
132
100
AcDbEntity
  8
DEFPOINTS
100
AcDbPoint
 10
220.00001525878906
 20
277.0
 30
0.0
  0
ENDBLK
  5
134
330
132
100
AcDbEntity
  8
0
100
AcDbBlockEnd
  0
ENDSEC
  0
SECTION
  2
ENTITIES
  0
LINE
  5
2D
330
17
100
AcDbEntity
  8
0
100
AcDbLine
 10
413.0
 20
131.0
 30
0.0
 11
413.0
 21
322.0
 31
0.0
  0
DIMENSION
  5
2E
330
17
100
AcDbEntity
  8
0
100
AcDbDimension
280
0
  2
*D1
  3
Standard
 10
409.0
 20
131.0
 30
0.0
 11
409.0
 21
226.5
 31
0.0
 70
32
 71
5
  1
<>
100
AcDbAlignedDimension
 13
413.0
 23
131.0
 33
0.0
 14
413.0
 24
322.0
 34
0.0
 50
90.0
100
AcDbRotatedDimension
1001
ACAD
1000
DSTYLE
1002
{
1070
41
1040
1.0
1070
173
1070
0
1070
142
1040
0.0
1070
342
1005
0
1002
}
  0
LINE
  5
42
330
17
100
AcDbEntity
  8
0
100
AcDbLine
 10
390.0
 20
322.0
 30
0.0
 11
413.0
 21
322.0
 31
0.0
  0
DIMENSION
  5
43
330
17
100
AcDbEntity
  8
0
100
AcDbDimension
280
0
  2
*D2
  3
Standard
 10
390.0
 20
326.0
 30
0.0
 11
401.5
 21
326.0
 31
0.0
 70
32
 71
5
  1
<>
100
AcDbAlignedDimension
 13
390.0
 23
322.0
 33
0.0
 14
413.0
 24
322.0
 34
0.0
 50
0.0
100
AcDbRotatedDimension
1001
ACAD
1000
DSTYLE
1002
{
1070
41
1040
1.0
1070
173
1070
0
1070
142
1040
0.0
1070
342
1005
0
1002
}
  0
LINE
  5
53
330
17
100
AcDbEntity
  8
0
100
AcDbLine
 10
174.0
 20
177.0
 30
0.0
 11
220.0
 21
177.0
 31
0.0
  0
DIMENSION
  5
54
330
17
100
AcDbEntity
  8
0
100
AcDbDimension
280
0
  2
*D3
  3
Standard
 10
174.0
 20
181.0
 30
0.0
 11
197.0
 21
181.0
 31
0.0
 70
32
 71
5
  1
<>
100
AcDbAlignedDimension
 13
174.0
 23
177.0
 33
0.0
 14
220.0
 24
177.0
 34
0.0
 50
0.0
100
AcDbRotatedDimension
1001
ACAD
1000
DSTYLE
1002
{
1070
41
1040
1.0
1070
173
1070
0
1070
142
1040
0.0
1070
342
1005
0
1002
}
  0
LINE
  5
64
330
17
100
AcDbEntity
  8
0
100
AcDbLine
 10
234.00003051757812
 20
177.00001525878906
 30
0.0
 11
332.0000305175781
 21
177.00000036612263
 31
0.0
  0
DIMENSION
  5
65
330
17
100
AcDbEntity
  8
0
100
AcDbDimension
280
0
  2
*D4
  3
Standard
 10
234.00003112544206
 20
181.000015258789
 30
0.0
 11
283.0000311254421
 21
181.0000078124558
 31
0.0
 70
32
 71
5
  1
<>
100
AcDbAlignedDimension
 13
234.00003051757812
 23
177.00001525878906
 33
0.0
 14
332.0000305175781
 24
177.00000036612263
 34
0.0
 50
-8.707009510453665e-06
100
AcDbRotatedDimension
1001
ACAD
1000
DSTYLE
1002
{
1070
41
1040
1.0
1070
173
1070
0
1070
142
1040
0.0
1070
342
1005
0
1002
}
  0
LINE
  5
75
330
17
100
AcDbEntity
  8
0
100
AcDbLine
 10
332.0000305175781
 20
289.0
 30
0.0
 11
390.0
 21
289.0
 31
0.0
  0
DIMENSION
  5
76
330
17
100
AcDbEntity
  8
0
100
AcDbDimension
280
0
  2
*D5
  3
Standard
 10
332.0000305175781
 20
293.0
 30
0.0
 11
361.00001525878906
 21
293.0
 31
0.0
 70
32
 71
5
  1
<>
100
AcDbAlignedDimension
 13
332.0000305175781
 23
289.0
 33
0.0
 14
390.0
 24
289.0
 34
0.0
 50
0.0
100
AcDbRotatedDimension
1001
ACAD
1000
DSTYLE
1002
{
1070
41
1040
1.0
1070
173
1070
0
1070
142
1040
0.0
1070
342
1005
0
1002
}
  0
LINE
  5
86
330
17
100
AcDbEntity
  8
0
100
AcDbLine
 10
332.0000305175781
 20
164.00001525878906
 30
0.0
 11
332.0000305175781
 21
289.0
 31
0.0
  0
DIMENSION
  5
87
330
17
100
AcDbEntity
  8
0
100
AcDbDimension
280
0
  2
*D6
  3
Standard
 10
328.0000305175781
 20
164.00001525878906
 30
0.0
 11
328.0000305175781
 21
226.50000762939453
 31
0.0
 70
32
 71
5
  1
<>
100
AcDbAlignedDimension
 13
332.0000305175781
 23
164.00001525878906
 33
0.0
 14
332.0000305175781
 24
289.0
 34
0.0
 50
90.0
100
AcDbRotatedDimension
1001
ACAD
1000
DSTYLE
1002
{
1070
41
1040
1.0
1070
173
1070
0
1070
142
1040
0.0
1070
342
1005
0
1002
}
  0
LINE
  5
97
330
17
100
AcDbEntity
  8
0
100
AcDbLine
 10
220.00000183105467
 20
189.0
 30
0.0
 11
234.00002868652493
 21
189.0
 31
0.0
  0
DIMENSION
  5
98
330
17
100
AcDbEntity
  8
0
100
AcDbDimension
280
0
  2
*D7
  3
Standard
 10
220.00000183105467
 20
193.0
 30
0.0
 11
227.0000152587898
 21
193.0
 31
0.0
 70
32
 71
5
  1
<>
100
AcDbAlignedDimension
 13
220.00000183105467
 23
189.0
 33
0.0
 14
234.00002868652493
 24
189.0
 34
0.0
 50
0.0
100
AcDbRotatedDimension
1001
ACAD
1000
DSTYLE
1002
{
1070
41
1040
1.0
1070
173
1070
0
1070
142
1040
0.0
1070
342
1005
0
1002
}
  0
LINE
  5
A8
330
17
100
AcDbEntity
  8
0
100
AcDbLine
 10
174.0
 20
277.0
 30
0.0
 11
220.00001525878906
 21
277.0
 31
0.0
  0
DIMENSION
  5
A9
330
17
100
AcDbEntity
  8
0
100
AcDbDimension
280
0
  2
*D8
  3
Standard
 10
174.0
 20
281.0
 30
0.0
 11
197.00000762939453
 21
281.0
 31
0.0
 70
32
 71
5
  1
<>
100
AcDbAlignedDimension
 13
174.0
 23
277.0
 33
0.0
 14
220.00001525878906
 24
277.0
 34
0.0
 50
0.0
100
AcDbRotatedDimension
1001
ACAD
1000
DSTYLE
1002
{
1070
41
1040
1.0
1070
173
1070
0
1070
142
1040
0.0
1070
342
1005
0
1002
}
  0
LINE
  5
B9
330
17
100
AcDbEntity
  8
0
100
AcDbLine
 10
234.00001525878906
 20
276.9999694824219
 30
0.0
 11
332.0000305175781
 21
276.9999992670125
 31
0.0
  0
DIMENSION
  5
BA
330
17
100
AcDbEntity
  8
0
100
AcDbDimension
280
0
  2
*D9
  3
Standard
 10
234.00001404309168
 20
280.9999694824217
 30
0.0
 11
283.0000216724862
 21
280.99998437471703
 31
0.0
 70
32
 71
5
  1
<>
100
AcDbAlignedDimension
 13
234.00001525878906
 23
276.9999694824219
 33
0.0
 14
332.0000305175781
 24
276.9999992670125
 34
0.0
 50
1.7413582379103703e-05
100
AcDbRotatedDimension
1001
ACAD
1000
DSTYLE
1002
{
1070
41
1040
1.0
1070
173
1070
0
1070
142
1040
0.0
1070
342
1005
0
1002
}
  0
LINE
  5
CA
330
17
100
AcDbEntity
  8
0
100
AcDbLine
 10
174.0
 20
177.0
 30
0.0
 11
174.0
 21
277.0
 31
0.0
  0
DIMENSION
  5
CB
330
17
100
AcDbEntity
  8
0
100
AcDbDimension
280
0
  2
*D10
  3
Standard
 10
170.0
 20
177.0
 30
0.0
 11
170.0
 21
227.0
 31
0.0
 70
32
 71
5
  1
<>
100
AcDbAlignedDimension
 13
174.0
 23
177.0
 33
0.0
 14
174.0
 24
277.0
 34
0.0
 50
90.0
100
AcDbRotatedDimension
1001
ACAD
1000
DSTYLE
1002
{
1070
41
1040
1.0
1070
173
1070
0
1070
142
1040
0.0
1070
342
1005
0
1002
}
  0
LINE
  5
DB
330
17
100
AcDbEntity
  8
0
100
AcDbLine
 10
220.00001358032227
 20
266.0
 30
0.0
 11
234.00001693725198
 21
266.0
 31
0.0
  0
DIMENSION
  5
DC
330
17
100
AcDbEntity
  8
0
100
AcDbDimension
280
0
  2
*D11
  3
Standard
 10
220.00001358032227
 20
270.0
 30
0.0
 11
227.00001525878713
 21
270.0
 31
0.0
 70
32
 71
5
  1
<>
100
AcDbAlignedDimension
 13
220.00001358032227
 23
266.0
 33
0.0
 14
234.00001693725198
 24
266.0
 34
0.0
 50
0.0
100
AcDbRotatedDimension
1001
ACAD
1000
DSTYLE
1002
{
1070
41
1040
1.0
1070
173
1070
0
1070
142
1040
0.0
1070
342
1005
0
1002
}
  0
LINE
  5
EC
330
17
100
AcDbEntity
  8
0
100
AcDbLine
 10
234.00001525878906
 20
276.9999694824219
 30
0.0
 11
234.00003051757812
 21
177.00001525878906
 31
0.0
  0
DIMENSION
  5
ED
330
17
100
AcDbEntity
  8
0
100
AcDbDimension
280
0
  2
*D12
  3
Standard
 10
238.00001525878903
 20
276.9999701976776
 30
0.0
 11
238.00002288818357
 21
226.9999930858612
 31
0.0
 70
32
 71
5
  1
<>
100
AcDbAlignedDimension
 13
234.00001525878906
 23
276.9999694824219
 33
0.0
 14
234.00003051757812
 24
177.00001525878906
 34
0.0
 50
-89.99999125735386
100
AcDbRotatedDimension
1001
ACAD
1000
DSTYLE
1002
{
1070
41
1040
1.0
1070
173
1070
0
1070
142
1040
0.0
1070
342
1005
0
1002
}
  0
LINE
  5
FD
330
17
100
AcDbEntity
  8
0
100
AcDbLine
 10
390.0
 20
131.0
 30
0.0
 11
413.0
 21
131.0
 31
0.0
  0
DIMENSION
  5
FE
330
17
100
AcDbEntity
  8
0
100
AcDbDimension
280
0
  2
*D13
  3
Standard
 10
390.0
 20
135.0
 30
0.0
 11
401.5
 21
135.0
 31
0.0
 70
32
 71
5
  1
<>
100
AcDbAlignedDimension
 13
390.0
 23
131.0
 33
0.0
 14
413.0
 24
131.0
 34
0.0
 50
0.0
100
AcDbRotatedDimension
1001
ACAD
1000
DSTYLE
1002
{
1070
41
1040
1.0
1070
173
1070
0
1070
142
1040
0.0
1070
342
1005
0
1002
}
  0
LINE
  5
10E
330
17
100
AcDbEntity
  8
0
100
AcDbLine
 10
332.0000305175781
 20
164.00001525878906
 30
0.0
 11
390.0
 21
164.0000002586237
 31
0.0
  0
DIMENSION
  5
10F
330
17
100
AcDbEntity
  8
0
100
AcDbDimension
280
0
  2
*D14
  3
Standard
 10
332.00003155207287
 20
168.00001525878892
 30
0.0
 11
361.0000162932838
 21
168.00000775870623
 31
0.0
 70
32
 71
5
  1
<>
100
AcDbAlignedDimension
 13
332.0000305175781
 23
164.00001525878906
 33
0.0
 14
390.0
 24
164.0000002586237
 34
0.0
 50
-1.4818045177263104e-05
100
AcDbRotatedDimension
1001
ACAD
1000
DSTYLE
1002
{
1070
41
1040
1.0
1070
173
1070
0
1070
142
1040
0.0
1070
342
1005
0
1002
}
  0
LINE
  5
11F
330
17
100
AcDbEntity
  8
0
100
AcDbLine
 10
390.0
 20
131.0
 30
0.0
 11
390.0
 21
322.0
 31
0.0
  0
DIMENSION
  5
120
330
17
100
AcDbEntity
  8
0
100
AcDbDimension
280
0
  2
*D15
  3
Standard
 10
386.0
 20
131.0
 30
0.0
 11
386.0
 21
226.5
 31
0.0
 70
32
 71
5
  1
<>
100
AcDbAlignedDimension
 13
390.0
 23
131.0
 33
0.0
 14
390.0
 24
322.0
 34
0.0
 50
90.0
100
AcDbRotatedDimension
1001
ACAD
1000
DSTYLE
1002
{
1070
41
1040
1.0
1070
173
1070
0
1070
142
1040
0.0
1070
342
1005
0
1002
}
  0
LINE
  5
130
330
17
100
AcDbEntity
  8
0
100
AcDbLine
 10
220.0
 20
177.0
 30
0.0
 11
220.00001525878906
 21
277.0
 31
0.0
  0
DIMENSION
  5
131
330
17
100
AcDbEntity
  8
0
100
AcDbDimension
280
0
  2
*D16
  3
Standard
 10
216.00000000000006
 20
177.00000071525574
 30
0.0
 11
216.0000076293946
 21
227.00000071525574
 31
0.0
 70
32
 71
5
  1
<>
100
AcDbAlignedDimension
 13
220.0
 23
177.0
 33
0.0
 14
220.00001525878906
 24
277.0
 34
0.0
 50
89.99999125735786
100
AcDbRotatedDimension
1001
ACAD
1000
DSTYLE
1002
{
1070
41
1040
1.0
1070
173
1070
0
1070
142
1040
0.0
1070
342
1005
0
1002
}
  0
ENDSEC
  0
SECTION
  2
OBJECTS
  0
DICTIONARY
  5
A
330
0
100
AcDbDictionary
281
1
  3
ACAD_COLOR
350
B
  3
ACAD_GROUP
350
C
  3
ACAD_LAYOUT
350
D
  3
ACAD_MATERIAL
350
E
  3
ACAD_MLEADERSTYLE
350
F
  3
ACAD_MLINESTYLE
350
10
  3
ACAD_PLOTSETTINGS
350
11
  3
ACAD_PLOTSTYLENAME
350
12
  3
ACAD_SCALELIST
350
14
  3
ACAD_TABLESTYLE
350
15
  3
ACAD_VISUALSTYLE
350
16
  0
DICTIONARY
  5
B
330
A
100
AcDbDictionary
281
1
  0
DICTIONARY
  5
C
330
A
100
AcDbDictionary
281
1
  0
DICTIONARY
  5
D
330
A
100
AcDbDictionary
281
1
  3
Model
350
1A
  3
Layout1
350
1E
  0
DICTIONARY
  5
E
330
A
100
AcDbDictionary
281
1
  3
ByBlock
350
1F
  3
ByLayer
350
20
  3
Global
350
21
  0
DICTIONARY
  5
F
330
A
100
AcDbDictionary
281
1
  3
Standard
350
2C
  0
DICTIONARY
  5
10
330
A
100
AcDbDictionary
281
1
  3
Standard
350
22
  0
DICTIONARY
  5
11
330
A
100
AcDbDictionary
281
1
  0
ACDBDICTIONARYWDFLT
  5
12
330
A
100
AcDbDictionary
281
1
  3
Normal
350
13
100
AcDbDictionaryWithDefault
340
13
  0
ACDBPLACEHOLDER
  5
13
330
12
  0
DICTIONARY
  5
14
330
A
100
AcDbDictionary
281
1
  0
DICTIONARY
  5
15
330
A
100
AcDbDictionary
281
1
  0
DICTIONARY
  5
16
330
A
100
AcDbDictionary
281
1
  0
LAYOUT
  5
1A
330
D
100
AcDbPlotSettings
  1

  2
Adobe PDF
  4
A4
  6

 40
3.175
 41
3.175
 42
3.175
 43
3.175
 44
209.91
 45
297.03
 46
0.0
 47
0.0
 48
0.0
 49
0.0
140
0.0
141
0.0
142
1.0
143
1.0
 70
1024
 72
0
 73
1
 74
5
  7

 75
16
 76
0
 77
2
 78
300
147
1.0
148
0.0
149
0.0
100
AcDbLayout
  1
Model
 70
1
 71
0
 10
-3.175
 20
-3.175
 11
293.857
 21
206.735
 12
0.0
 22
0.0
 32
0.0
 14
29.068
 24
20.356
 34
0.0
 15
261.614
 25
183.204
 35
0.0
146
0.0
 13
0.0
 23
0.0
 33
0.0
 16
1.0
 26
0.0
 36
0.0
 17
0.0
 27
1.0
 37
0.0
 76
1
330
17
  0
LAYOUT
  5
1E
330
D
100
AcDbPlotSettings
  1

  2
Adobe PDF
  4
A4
  6

 40
3.175
 41
3.175
 42
3.175
 43
3.175
 44
209.91
 45
297.03
 46
0.0
 47
0.0
 48
0.0
 49
0.0
140
0.0
141
0.0
142
1.0
143
1.0
 70
0
 72
0
 73
1
 74
5
  7

 75
16
 76
0
 77
2
 78
300
147
1.0
148
0.0
149
0.0
100
AcDbLayout
  1
Layout1
 70
1
 71
1
 10
-3.175
 20
-3.175
 11
293.857
 21
206.735
 12
0.0
 22
0.0
 32
0.0
 14
29.068
 24
20.356
 34
0.0
 15
261.614
 25
183.204
 35
0.0
146
0.0
 13
0.0
 23
0.0
 33
0.0
 16
1.0
 26
0.0
 36
0.0
 17
0.0
 27
1.0
 37
0.0
 76
1
330
1B
  0
MATERIAL
  5
1F
102
{ACAD_REACTORS
330
E
102
}
330
E
100
AcDbMaterial
  1
ByBlock
  2

 70
0
 40
1.0
 71
1
 41
1.0
 91
-1023410177
 42
1.0
 72
1
  3

 73
1
 74
1
 75
1
 44
0.5
 73
0
 45
1.0
 46
1.0
 77
1
  4

 78
1
 79
1
170
1
 48
1.0
171
1
  6

172
1
173
1
174
1
140
1.0
141
1.0
175
1
  7

176
1
177
1
178
1
143
1.0
179
1
  8

270
1
271
1
272
1
145
1.0
146
1.0
273
1
  9

274
1
275
1
276
1
 42
1.0
 72
1
  3

 73
1
 74
1
 75
1
 94
63
  0
MATERIAL
  5
20
102
{ACAD_REACTORS
330
E
102
}
330
E
100
AcDbMaterial
  1
ByLayer
  2

 70
0
 40
1.0
 71
1
 41
1.0
 91
-1023410177
 42
1.0
 72
1
  3

 73
1
 74
1
 75
1
 44
0.5
 73
0
 45
1.0
 46
1.0
 77
1
  4

 78
1
 79
1
170
1
 48
1.0
171
1
  6

172
1
173
1
174
1
140
1.0
141
1.0
175
1
  7

176
1
177
1
178
1
143
1.0
179
1
  8

270
1
271
1
272
1
145
1.0
146
1.0
273
1
  9

274
1
275
1
276
1
 42
1.0
 72
1
  3

 73
1
 74
1
 75
1
 94
63
  0
MATERIAL
  5
21
102
{ACAD_REACTORS
330
E
102
}
330
E
100
AcDbMaterial
  1
Global
  2

 70
0
 40
1.0
 71
1
 41
1.0
 91
-1023410177
 42
1.0
 72
1
  3

 73
1
 74
1
 75
1
 44
0.5
 73
0
 45
1.0
 46
1.0
 77
1
  4

 78
1
 79
1
170
1
 48
1.0
171
1
  6

172
1
173
1
174
1
140
1.0
141
1.0
175
1
  7

176
1
177
1
178
1
143
1.0
179
1
  8

270
1
271
1
272
1
145
1.0
146
1.0
273
1
  9

274
1
275
1
276
1
 42
1.0
 72
1
  3

 73
1
 74
1
 75
1
 94
63
  0
MLINESTYLE
  5
22
102
{ACAD_REACTORS
330
10
102
}
330
10
100
AcDbMlineStyle
  2
Standard
 70
0
  3

 62
256
 51
90.0
 52
90.0
 71
2
 49
0.5
 62
256
  6
BYLAYER
 49
-0.5
 62
256
  6
BYLAYER
  0
MLEADERSTYLE
  5
2C
102
{ACAD_REACTORS
330
F
102
}
330
F
100
AcDbMLeaderStyle
179
2
170
2
171
1
172
0
 90
2
 40
0.0
 41
0.0
173
1
 91
-1056964608
 92
-2
290
1
 42
2.0
291
1
 43
8.0
  3
Standard
 44
4.0
300

342
29
174
1
175
1
176
0
178
1
 93
-1056964608
 45
4.0
292
0
297
0
 46
4.0
 94
-1056964608
 47
1.0
 49
0.0
140
1.0
294
1
141
0.0
177
0
142
1.0
295
0
296
0
143
3.75
271
0
272
9
272
9
  0
ENDSEC
  0
EOF
